<svg width="97" height="108" viewBox="0 0 97 108" fill="none" xmlns="http://www.w3.org/2000/svg">
<g filter="url(#filter0_dddd_265_139)">
<mask id="mask0_265_139" style="mask-type:luminance" maskUnits="userSpaceOnUse" x="4" y="2" width="76" height="76">
<path d="M4 2H80V78H4V2Z" fill="white"/>
</mask>
<g mask="url(#mask0_265_139)">
<mask id="mask1_265_139" style="mask-type:luminance" maskUnits="userSpaceOnUse" x="4" y="2" width="76" height="76">
<path d="M80 40C80 40.6222 79.9844 41.2434 79.9542 41.8646C79.924 42.4859 79.8781 43.1062 79.8167 43.7247C79.7563 44.3432 79.6802 44.9607 79.5886 45.5756C79.497 46.1913 79.3907 46.8034 79.2697 47.4136C79.1488 48.023 79.0122 48.6295 78.8611 49.2334C78.7099 49.8363 78.544 50.4355 78.3635 51.0311C78.183 51.6258 77.9878 52.2159 77.7789 52.8014C77.5691 53.3878 77.3455 53.9678 77.1073 54.5423C76.8691 55.1168 76.6171 55.6849 76.3514 56.2475C76.0856 56.8092 75.8062 57.3644 75.513 57.9133C75.2198 58.4612 74.9137 59.0027 74.5939 59.536C74.2742 60.0693 73.9416 60.5943 73.5961 61.112C73.2507 61.6288 72.8924 62.1373 72.5222 62.6367C72.1511 63.1361 71.7691 63.6263 71.3741 64.1073C70.9801 64.5875 70.5733 65.0584 70.1564 65.5193C69.7386 65.9802 69.3097 66.4301 68.8699 66.8699C68.4301 67.3097 67.9802 67.7386 67.5193 68.1564C67.0584 68.5742 66.5875 68.9801 66.1064 69.3741C65.6263 69.7691 65.1361 70.1511 64.6367 70.5222C64.1373 70.8924 63.6288 71.2507 63.112 71.5961C62.5943 71.9416 62.0693 72.2742 61.536 72.5939C61.0027 72.9137 60.4612 73.2198 59.9133 73.513C59.3644 73.8062 58.8092 74.0856 58.2466 74.3514C57.6849 74.6171 57.1168 74.8691 56.5423 75.1073C55.9669 75.3455 55.3869 75.5691 54.8014 75.7789C54.2159 75.9878 53.6258 76.183 53.0311 76.3635C52.4355 76.544 51.8363 76.7099 51.2334 76.8611C50.6295 77.0122 50.023 77.1488 49.4136 77.2697C48.8034 77.3916 48.1904 77.4979 47.5756 77.5886C46.9607 77.6802 46.3432 77.7563 45.7247 77.8167C45.1053 77.8781 44.4859 77.924 43.8646 77.9542C43.2434 77.9844 42.6222 78 42 78C41.3778 78 40.7566 77.9844 40.1354 77.9542C39.5141 77.924 38.8938 77.8781 38.2753 77.8167C37.6559 77.7563 37.0393 77.6802 36.4244 77.5886C35.8087 77.4979 35.1966 77.3916 34.5864 77.2697C33.9761 77.1488 33.3695 77.0122 32.7666 76.8611C32.1637 76.7099 31.5645 76.544 30.9689 76.3635C30.3742 76.183 29.7832 75.9878 29.1977 75.7789C28.6122 75.5691 28.0322 75.3455 27.4577 75.1073C26.8832 74.8691 26.3151 74.6171 25.7525 74.3514C25.1908 74.0856 24.6356 73.8062 24.0867 73.513C23.5388 73.2198 22.9973 72.9137 22.464 72.5939C21.9307 72.2742 21.4057 71.9416 20.888 71.5961C20.3712 71.2507 19.8627 70.8924 19.3633 70.5222C18.8639 70.1511 18.3737 69.7691 17.8926 69.3741C17.4125 68.9801 16.9416 68.5742 16.4807 68.1564C16.0198 67.7386 15.5699 67.3097 15.1301 66.8699C14.6902 66.4301 14.2614 65.9802 13.8436 65.5193C13.4258 65.0584 13.0199 64.5875 12.6259 64.1073C12.231 63.6263 11.8489 63.1361 11.4778 62.6367C11.1076 62.1373 10.7493 61.6288 10.4039 61.112C10.0584 60.5943 9.72584 60.0693 9.40606 59.536C9.08628 59.0027 8.78024 58.4612 8.48703 57.9133C8.19382 57.3644 7.91435 56.8092 7.64863 56.2475C7.38199 55.6849 7.13093 55.1168 6.8927 54.5423C6.65447 53.9678 6.43089 53.3878 6.22106 52.8014C6.01215 52.2159 5.81698 51.6258 5.63648 51.0311C5.45597 50.4355 5.29012 49.8363 5.13894 49.2334C4.98775 48.6295 4.85122 48.023 4.73028 47.4136C4.60841 46.8034 4.50212 46.1913 4.41141 45.5756C4.31978 44.9607 4.24373 44.3432 4.18326 43.7247C4.12187 43.1062 4.07605 42.4859 4.04581 41.8646C4.01558 41.2434 4 40.6222 4 40C4 39.3778 4.01558 38.7566 4.04581 38.1354C4.07605 37.5141 4.12187 36.8938 4.18326 36.2753C4.24373 35.6568 4.31978 35.0393 4.41141 34.4244C4.50212 33.8087 4.60841 33.1966 4.73028 32.5864C4.85122 31.977 4.98775 31.3705 5.13894 30.7666C5.29012 30.1637 5.45597 29.5645 5.63648 28.9689C5.81698 28.3742 6.01215 27.7841 6.22106 27.1977C6.43089 26.6122 6.65447 26.0322 6.8927 25.4577C7.13093 24.8832 7.38199 24.3151 7.64863 23.7525C7.91435 23.1908 8.19382 22.6356 8.48703 22.0867C8.78024 21.5388 9.08628 20.9973 9.40606 20.464C9.72584 19.9307 10.0584 19.4057 10.4039 18.888C10.7493 18.3712 11.1076 17.8627 11.4778 17.3633C11.8489 16.8639 12.231 16.3737 12.6259 15.8926C13.0199 15.4125 13.4258 14.9416 13.8436 14.4807C14.2614 14.0198 14.6902 13.5699 15.1301 13.1301C15.5699 12.6902 16.0198 12.2614 16.4807 11.8436C16.9416 11.4258 17.4125 11.0199 17.8926 10.6259C18.3737 10.231 18.8639 9.84886 19.3633 9.47777C19.8627 9.10759 20.3712 8.74932 20.888 8.40389C21.4057 8.05845 21.9307 7.72584 22.464 7.40606C22.9973 7.08628 23.5388 6.78024 24.0867 6.48703C24.6356 6.19382 25.1908 5.91435 25.7525 5.64863C26.3151 5.38291 26.8832 5.13093 27.4577 4.8927C28.0322 4.65447 28.6122 4.43089 29.1977 4.22106C29.7832 4.01215 30.3742 3.81699 30.9689 3.63648C31.5645 3.45597 32.1637 3.29012 32.7666 3.13894C33.3695 2.98775 33.9761 2.85122 34.5864 2.73028C35.1966 2.60841 35.8087 2.50212 36.4244 2.41141C37.0393 2.31978 37.6559 2.24373 38.2753 2.18326C38.8938 2.12187 39.5141 2.07605 40.1354 2.04581C40.7566 2.01558 41.3778 2 42 2C42.6222 2 43.2434 2.01558 43.8646 2.04581C44.4859 2.07605 45.1053 2.12187 45.7247 2.18326C46.3432 2.24373 46.9607 2.31978 47.5756 2.41141C48.1904 2.50212 48.8034 2.60841 49.4136 2.73028C50.023 2.85122 50.6295 2.98775 51.2334 3.13894C51.8363 3.29012 52.4355 3.45597 53.0311 3.63648C53.6258 3.81699 54.2159 4.01215 54.8014 4.22106C55.3869 4.43089 55.9669 4.65447 56.5423 4.8927C57.1168 5.13093 57.6849 5.38291 58.2466 5.64863C58.8092 5.91435 59.3644 6.19382 59.9133 6.48703C60.4612 6.78024 61.0027 7.08628 61.536 7.40606C62.0693 7.72584 62.5943 8.05845 63.112 8.40389C63.6288 8.74932 64.1373 9.10759 64.6367 9.47777C65.1361 9.84886 65.6263 10.231 66.1064 10.6259C66.5875 11.0199 67.0584 11.4258 67.5193 11.8436C67.9802 12.2614 68.4301 12.6902 68.8699 13.1301C69.3097 13.5699 69.7386 14.0198 70.1564 14.4807C70.5733 14.9416 70.9801 15.4125 71.3741 15.8926C71.7691 16.3737 72.1511 16.8639 72.5222 17.3633C72.8924 17.8627 73.2507 18.3712 73.5961 18.888C73.9416 19.4057 74.2742 19.9307 74.5939 20.464C74.9137 20.9973 75.2198 21.5388 75.513 22.0867C75.8062 22.6356 76.0856 23.1908 76.3514 23.7525C76.6171 24.3151 76.8691 24.8832 77.1073 25.4577C77.3455 26.0322 77.5691 26.6122 77.7789 27.1977C77.9878 27.7841 78.183 28.3742 78.3635 28.9689C78.544 29.5645 78.7099 30.1637 78.8611 30.7666C79.0122 31.3705 79.1488 31.977 79.2697 32.5864C79.3907 33.1966 79.497 33.8087 79.5886 34.4244C79.6802 35.0393 79.7563 35.6568 79.8167 36.2753C79.8781 36.8938 79.924 37.5141 79.9542 38.1354C79.9844 38.7566 80 39.3778 80 40Z" fill="white"/>
</mask>
<g mask="url(#mask1_265_139)">
<path d="M4 2V78H80V2H4Z" fill="url(#paint0_linear_265_139)"/>
</g>
</g>
<mask id="mask2_265_139" style="mask-type:luminance" maskUnits="userSpaceOnUse" x="19" y="18" width="46" height="44">
<path d="M19.5938 18.1855H64.3962V61.8152H19.5938V18.1855Z" fill="white"/>
</mask>
<g mask="url(#mask2_265_139)">
<mask id="mask3_265_139" style="mask-type:luminance" maskUnits="userSpaceOnUse" x="19" y="18" width="46" height="44">
<path d="M60.71 41.7023L64.1122 29.0686C64.3147 28.3172 64.1534 27.499 63.6797 26.8787C63.1959 26.252 62.4675 25.8919 61.6776 25.8919H29.2972L28.2618 21.1052C27.9026 19.4431 26.4072 18.2363 24.7066 18.2363H20.5824C20.1509 18.2363 19.8018 18.5854 19.8018 19.017C19.8018 19.4486 20.1509 19.7968 20.5824 19.7968H24.7066C25.677 19.7968 26.53 20.4867 26.7353 21.4351L32.2769 47.0689C32.6535 48.8062 34.2176 50.0679 35.9952 50.0679H60.2079C60.6395 50.0679 60.9886 49.7179 60.9886 49.2873C60.9886 48.8557 60.6395 48.5075 60.2079 48.5075H35.9979C34.9497 48.5075 34.027 47.7635 33.8044 46.7391L33.119 43.5697H58.2755C59.4135 43.5687 60.4141 42.8018 60.71 41.7023ZM58.4487 27.4523H61.6776C61.9791 27.4523 62.2567 27.5897 62.44 27.8289C62.6205 28.0644 62.6837 28.3768 62.6049 28.6627L61.9846 30.9662H57.7569L58.4487 27.4523ZM61.564 32.5257L60.502 36.4657H56.6729L57.449 32.5257H61.564ZM51.2045 27.4523H56.8571L56.1653 30.9662H50.8124L51.2045 27.4523ZM41.9831 27.4523L42.3753 30.9662H37.0223L36.3305 27.4523H41.9831ZM29.6353 27.4523H34.7381L35.4308 30.9662H30.3958L29.6353 27.4523ZM30.7321 32.5257H35.7368L36.5138 36.4657H31.5842L30.7321 32.5257ZM32.7827 42.0083L31.9223 38.0271H36.8198L37.6042 42.0083H32.7827ZM37.3275 32.5257H42.5475L42.9873 36.4657H38.1045L37.3275 32.5257ZM39.1948 42.0083L38.4105 38.0271H43.1605L43.6049 42.0083H39.1948ZM48.0095 42.0083H45.1763L44.7319 38.0271H48.4548L48.0095 42.0083ZM48.6289 36.4667H44.5588L44.1189 32.5266H49.0687L48.6289 36.4667ZM43.9448 30.9653L43.5527 27.4514H49.634L49.2419 30.9653H43.9448ZM53.9909 42.0083H49.5818L50.0253 38.0271H54.7735L53.9909 42.0083ZM50.1985 36.4667L50.6383 32.5266H55.8583L55.0822 36.4667H50.1985ZM56.3659 38.0271H60.0833L59.2018 41.2982C59.0891 41.716 58.708 42.0092 58.2755 42.0092H55.5816L56.3659 38.0271ZM38.5003 52.2652C35.8825 52.2652 33.7531 54.3946 33.7531 57.0124C33.7531 59.6302 35.8834 61.7597 38.5003 61.7597C41.1172 61.7597 43.2476 59.6293 43.2476 57.0124C43.2476 54.3946 41.1181 52.2652 38.5003 52.2652ZM54.6855 52.2652C52.0677 52.2652 49.9382 54.3946 49.9382 57.0124C49.9382 59.6302 52.0677 61.7597 54.6855 61.7597C57.3033 61.7597 59.4327 59.6293 59.4327 57.0124C59.4327 54.3946 57.3033 52.2652 54.6855 52.2652Z" fill="white"/>
</mask>
<g mask="url(#mask3_265_139)">
<path d="M19.8018 18.2363V61.7597H64.3147V18.2363H19.8018Z" fill="url(#paint1_linear_265_139)"/>
</g>
</g>
</g>
<defs>
<filter id="filter0_dddd_265_139" x="0" y="0" width="97" height="108" filterUnits="userSpaceOnUse" color-interpolation-filters="sRGB">
<feFlood flood-opacity="0" result="BackgroundImageFix"/>
<feColorMatrix in="SourceAlpha" type="matrix" values="0 0 0 0 0 0 0 0 0 0 0 0 0 0 0 0 0 0 127 0" result="hardAlpha"/>
<feOffset dx="1" dy="1"/>
<feGaussianBlur stdDeviation="1.5"/>
<feColorMatrix type="matrix" values="0 0 0 0 0 0 0 0 0 0 0 0 0 0 0 0 0 0 0.1 0"/>
<feBlend mode="normal" in2="BackgroundImageFix" result="effect1_dropShadow_265_139"/>
<feColorMatrix in="SourceAlpha" type="matrix" values="0 0 0 0 0 0 0 0 0 0 0 0 0 0 0 0 0 0 127 0" result="hardAlpha"/>
<feOffset dx="2" dy="5"/>
<feGaussianBlur stdDeviation="3"/>
<feColorMatrix type="matrix" values="0 0 0 0 0 0 0 0 0 0 0 0 0 0 0 0 0 0 0.09 0"/>
<feBlend mode="normal" in2="effect1_dropShadow_265_139" result="effect2_dropShadow_265_139"/>
<feColorMatrix in="SourceAlpha" type="matrix" values="0 0 0 0 0 0 0 0 0 0 0 0 0 0 0 0 0 0 127 0" result="hardAlpha"/>
<feOffset dx="5" dy="12"/>
<feGaussianBlur stdDeviation="3.5"/>
<feColorMatrix type="matrix" values="0 0 0 0 0 0 0 0 0 0 0 0 0 0 0 0 0 0 0.05 0"/>
<feBlend mode="normal" in2="effect2_dropShadow_265_139" result="effect3_dropShadow_265_139"/>
<feColorMatrix in="SourceAlpha" type="matrix" values="0 0 0 0 0 0 0 0 0 0 0 0 0 0 0 0 0 0 127 0" result="hardAlpha"/>
<feOffset dx="8" dy="21"/>
<feGaussianBlur stdDeviation="4.5"/>
<feColorMatrix type="matrix" values="0 0 0 0 0 0 0 0 0 0 0 0 0 0 0 0 0 0 0.01 0"/>
<feBlend mode="normal" in2="effect3_dropShadow_265_139" result="effect4_dropShadow_265_139"/>
<feBlend mode="normal" in="SourceGraphic" in2="effect4_dropShadow_265_139" result="shape"/>
</filter>
<linearGradient id="paint0_linear_265_139" x1="79.9999" y1="2.00001" x2="3.99992" y2="78" gradientUnits="userSpaceOnUse">
<stop stop-color="#FFEBEF"/>
<stop offset="0.125" stop-color="#FFEBEF"/>
<stop offset="0.15625" stop-color="#FFEBEF"/>
<stop offset="0.171875" stop-color="#FFEAEE"/>
<stop offset="0.1875" stop-color="#FFE9ED"/>
<stop offset="0.203125" stop-color="#FFE8ED"/>
<stop offset="0.21875" stop-color="#FFE7EC"/>
<stop offset="0.234375" stop-color="#FFE6EB"/>
<stop offset="0.25" stop-color="#FFE5EA"/>
<stop offset="0.265625" stop-color="#FFE4EA"/>
<stop offset="0.28125" stop-color="#FEE3E9"/>
<stop offset="0.296875" stop-color="#FEE2E8"/>
<stop offset="0.3125" stop-color="#FEE1E7"/>
<stop offset="0.328125" stop-color="#FEE1E7"/>
<stop offset="0.34375" stop-color="#FEE0E6"/>
<stop offset="0.359375" stop-color="#FEDFE5"/>
<stop offset="0.375" stop-color="#FEDEE4"/>
<stop offset="0.390625" stop-color="#FEDDE4"/>
<stop offset="0.40625" stop-color="#FEDCE3"/>
<stop offset="0.421875" stop-color="#FEDBE2"/>
<stop offset="0.4375" stop-color="#FEDAE1"/>
<stop offset="0.453125" stop-color="#FED9E1"/>
<stop offset="0.46875" stop-color="#FED8E0"/>
<stop offset="0.484375" stop-color="#FED7DF"/>
<stop offset="0.5" stop-color="#FDD5DE"/>
<stop offset="0.515625" stop-color="#FDD5DD"/>
<stop offset="0.53125" stop-color="#FDD4DD"/>
<stop offset="0.546875" stop-color="#FDD3DC"/>
<stop offset="0.5625" stop-color="#FDD2DB"/>
<stop offset="0.578125" stop-color="#FDD1DB"/>
<stop offset="0.59375" stop-color="#FDD0DA"/>
<stop offset="0.609375" stop-color="#FDCFD9"/>
<stop offset="0.625" stop-color="#FDCED8"/>
<stop offset="0.640625" stop-color="#FDCDD8"/>
<stop offset="0.65625" stop-color="#FDCDD7"/>
<stop offset="0.671875" stop-color="#FDCCD6"/>
<stop offset="0.6875" stop-color="#FDCBD5"/>
<stop offset="0.703125" stop-color="#FDCAD5"/>
<stop offset="0.71875" stop-color="#FDC9D4"/>
<stop offset="0.734375" stop-color="#FCC8D3"/>
<stop offset="0.75" stop-color="#FCC7D2"/>
<stop offset="0.765625" stop-color="#FCC6D2"/>
<stop offset="0.78125" stop-color="#FCC5D1"/>
<stop offset="0.796875" stop-color="#FCC4D0"/>
<stop offset="0.8125" stop-color="#FCC3CF"/>
<stop offset="0.828125" stop-color="#FCC2CF"/>
<stop offset="0.84375" stop-color="#FCC1CE"/>
<stop offset="0.875" stop-color="#FCC0CD"/>
<stop offset="1" stop-color="#FCC0CD"/>
</linearGradient>
<linearGradient id="paint1_linear_265_139" x1="18.247" y1="60.2052" x2="62.2653" y2="16.1869" gradientUnits="userSpaceOnUse">
<stop stop-color="#FC9C95"/>
<stop offset="0.125" stop-color="#FC9C95"/>
<stop offset="0.1875" stop-color="#FC9C95"/>
<stop offset="0.195312" stop-color="#FC9C95"/>
<stop offset="0.203125" stop-color="#FC9B95"/>
<stop offset="0.207031" stop-color="#FC9A95"/>
<stop offset="0.210937" stop-color="#FC9995"/>
<stop offset="0.21875" stop-color="#FC9995"/>
<stop offset="0.226562" stop-color="#FC9895"/>
<stop offset="0.230469" stop-color="#FC9795"/>
<stop offset="0.234375" stop-color="#FC9694"/>
<stop offset="0.242188" stop-color="#FC9694"/>
<stop offset="0.246094" stop-color="#FC9594"/>
<stop offset="0.25" stop-color="#FC9494"/>
<stop offset="0.257812" stop-color="#FC9494"/>
<stop offset="0.261719" stop-color="#FC9394"/>
<stop offset="0.265625" stop-color="#FC9294"/>
<stop offset="0.273438" stop-color="#FC9294"/>
<stop offset="0.28125" stop-color="#FC9194"/>
<stop offset="0.285156" stop-color="#FC9094"/>
<stop offset="0.289062" stop-color="#FC8F94"/>
<stop offset="0.296875" stop-color="#FC8F94"/>
<stop offset="0.300781" stop-color="#FC8E94"/>
<stop offset="0.304688" stop-color="#FC8D94"/>
<stop offset="0.3125" stop-color="#FC8D94"/>
<stop offset="0.320312" stop-color="#FC8C94"/>
<stop offset="0.324219" stop-color="#FC8B94"/>
<stop offset="0.328125" stop-color="#FC8A94"/>
<stop offset="0.335937" stop-color="#FC8A94"/>
<stop offset="0.339844" stop-color="#FC8993"/>
<stop offset="0.34375" stop-color="#FC8893"/>
<stop offset="0.351562" stop-color="#FC8893"/>
<stop offset="0.359375" stop-color="#FC8793"/>
<stop offset="0.363281" stop-color="#FC8693"/>
<stop offset="0.367187" stop-color="#FC8593"/>
<stop offset="0.375" stop-color="#FC8593"/>
<stop offset="0.378906" stop-color="#FC8493"/>
<stop offset="0.382812" stop-color="#FC8393"/>
<stop offset="0.390625" stop-color="#FC8393"/>
<stop offset="0.394531" stop-color="#FC8293"/>
<stop offset="0.398438" stop-color="#FC8193"/>
<stop offset="0.40625" stop-color="#FC8193"/>
<stop offset="0.414062" stop-color="#FC8093"/>
<stop offset="0.417969" stop-color="#FC7F93"/>
<stop offset="0.421875" stop-color="#FC7E93"/>
<stop offset="0.429687" stop-color="#FC7E93"/>
<stop offset="0.433594" stop-color="#FC7D93"/>
<stop offset="0.4375" stop-color="#FC7C92"/>
<stop offset="0.445312" stop-color="#FC7C92"/>
<stop offset="0.453125" stop-color="#FC7B92"/>
<stop offset="0.457031" stop-color="#FC7A92"/>
<stop offset="0.460937" stop-color="#FC7992"/>
<stop offset="0.46875" stop-color="#FC7992"/>
<stop offset="0.472656" stop-color="#FC7892"/>
<stop offset="0.476562" stop-color="#FC7792"/>
<stop offset="0.484375" stop-color="#FC7792"/>
<stop offset="0.492188" stop-color="#FC7692"/>
<stop offset="0.496094" stop-color="#FC7592"/>
<stop offset="0.5" stop-color="#FC7492"/>
<stop offset="0.505619" stop-color="#FC7492"/>
<stop offset="0.507812" stop-color="#FC7392"/>
<stop offset="0.511719" stop-color="#FC7392"/>
<stop offset="0.515625" stop-color="#FC7292"/>
<stop offset="0.523437" stop-color="#FC7292"/>
<stop offset="0.527344" stop-color="#FC7192"/>
<stop offset="0.53125" stop-color="#FC7092"/>
<stop offset="0.539062" stop-color="#FC7092"/>
<stop offset="0.546875" stop-color="#FC6F91"/>
<stop offset="0.550781" stop-color="#FC6E91"/>
<stop offset="0.554688" stop-color="#FC6D91"/>
<stop offset="0.5625" stop-color="#FC6D91"/>
<stop offset="0.566406" stop-color="#FC6C91"/>
<stop offset="0.570312" stop-color="#FC6C91"/>
<stop offset="0.578125" stop-color="#FC6B91"/>
<stop offset="0.585938" stop-color="#FC6A91"/>
<stop offset="0.589844" stop-color="#FC6991"/>
<stop offset="0.59375" stop-color="#FC6991"/>
<stop offset="0.601562" stop-color="#FC6891"/>
<stop offset="0.605469" stop-color="#FC6791"/>
<stop offset="0.609375" stop-color="#FC6791"/>
<stop offset="0.617188" stop-color="#FC6691"/>
<stop offset="0.625" stop-color="#FC6591"/>
<stop offset="0.628906" stop-color="#FC6491"/>
<stop offset="0.632812" stop-color="#FC6491"/>
<stop offset="0.640625" stop-color="#FC6391"/>
<stop offset="0.644531" stop-color="#FC6290"/>
<stop offset="0.648437" stop-color="#FC6290"/>
<stop offset="0.65625" stop-color="#FC6190"/>
<stop offset="0.660156" stop-color="#FC6090"/>
<stop offset="0.664062" stop-color="#FC6090"/>
<stop offset="0.671875" stop-color="#FC5F90"/>
<stop offset="0.679687" stop-color="#FC5E90"/>
<stop offset="0.683594" stop-color="#FC5D90"/>
<stop offset="0.6875" stop-color="#FC5D90"/>
<stop offset="0.695312" stop-color="#FC5C90"/>
<stop offset="0.699219" stop-color="#FC5B90"/>
<stop offset="0.703125" stop-color="#FC5B90"/>
<stop offset="0.710938" stop-color="#FC5A90"/>
<stop offset="0.71875" stop-color="#FC5990"/>
<stop offset="0.722656" stop-color="#FC5890"/>
<stop offset="0.726562" stop-color="#FC5890"/>
<stop offset="0.734375" stop-color="#FC5790"/>
<stop offset="0.738281" stop-color="#FC5690"/>
<stop offset="0.742188" stop-color="#FC5690"/>
<stop offset="0.75" stop-color="#FC558F"/>
<stop offset="0.757812" stop-color="#FC548F"/>
<stop offset="0.761719" stop-color="#FC538F"/>
<stop offset="0.765625" stop-color="#FC538F"/>
<stop offset="0.773437" stop-color="#FC528F"/>
<stop offset="0.777344" stop-color="#FC518F"/>
<stop offset="0.78125" stop-color="#FC518F"/>
<stop offset="0.789062" stop-color="#FC508F"/>
<stop offset="0.792969" stop-color="#FC4F8F"/>
<stop offset="0.796875" stop-color="#FC4F8F"/>
<stop offset="0.804687" stop-color="#FC4E8F"/>
<stop offset="0.8125" stop-color="#FC4D8F"/>
<stop offset="0.816406" stop-color="#FC4C8F"/>
<stop offset="0.820312" stop-color="#FC4C8F"/>
<stop offset="0.828125" stop-color="#FC4B8F"/>
<stop offset="0.832031" stop-color="#FC4A8F"/>
<stop offset="0.835937" stop-color="#FC4A8F"/>
<stop offset="0.84375" stop-color="#FC498F"/>
<stop offset="0.851562" stop-color="#FC488E"/>
<stop offset="0.855469" stop-color="#FC478E"/>
<stop offset="0.859375" stop-color="#FC478E"/>
<stop offset="0.867188" stop-color="#FC468E"/>
<stop offset="0.871094" stop-color="#FC458E"/>
<stop offset="0.875" stop-color="#FC458E"/>
<stop offset="0.882812" stop-color="#FC448E"/>
<stop offset="0.890625" stop-color="#FC438E"/>
<stop offset="0.90625" stop-color="#FC428E"/>
<stop offset="0.9375" stop-color="#FC428E"/>
<stop offset="1" stop-color="#FC428E"/>
</linearGradient>
</defs>
</svg>
