<svg width="298" height="81" viewBox="0 0 298 81" fill="none" xmlns="http://www.w3.org/2000/svg">
<mask id="mask0_269_145" style="mask-type:luminance" maskUnits="userSpaceOnUse" x="0" y="4" width="298" height="77">
<path d="M0 4.02246H298V80.4132H0V4.02246Z" fill="white"/>
</mask>
<g mask="url(#mask0_269_145)">
<path fill-rule="evenodd" clip-rule="evenodd" d="M297.999 42.282C297.999 63.3417 280.899 80.4116 259.803 80.4116H38.2403C17.1442 80.4116 0.0439453 63.3417 0.0439453 42.282C0.0439453 21.2243 17.1442 4.15039 38.2403 4.15039H259.803C280.899 4.15039 297.999 21.2243 297.999 42.282Z" fill="#FD6857"/>
</g>
<mask id="mask1_269_145" style="mask-type:luminance" maskUnits="userSpaceOnUse" x="0" y="0" width="298" height="77">
<path d="M0 0H298V76.5323H0V0Z" fill="white"/>
</mask>
<g mask="url(#mask1_269_145)">
<path fill-rule="evenodd" clip-rule="evenodd" d="M297.999 38.1316C297.999 59.1893 280.899 76.2612 259.803 76.2612H38.2403C17.1442 76.2612 0.0439453 59.1893 0.0439453 38.1316C0.0439453 17.0719 17.1442 0 38.2403 0H259.803C280.899 0 297.999 17.0719 297.999 38.1316Z" fill="white"/>
</g>
<path fill-rule="evenodd" clip-rule="evenodd" d="M294.146 38.1537C294.146 57.6514 278.314 73.4548 258.784 73.4548H39.3072C19.7771 73.4548 3.94336 57.6514 3.94336 38.1537C3.94336 18.6559 19.7771 2.85254 39.3072 2.85254H258.784C278.314 2.85254 294.146 18.6559 294.146 38.1537Z" fill="#FB8075"/>
<path fill-rule="evenodd" clip-rule="evenodd" d="M152.282 32.7466C151.561 32.7466 150.892 32.8721 150.272 33.127C149.651 33.3758 149.113 33.742 148.654 34.2175C148.197 34.693 147.837 35.2574 147.576 35.9089C147.315 36.5665 147.185 37.309 147.185 38.1324C147.185 38.9377 147.315 39.6762 147.576 40.3398C147.837 41.0014 148.197 41.5719 148.654 42.0474C149.113 42.5228 149.651 42.889 150.272 43.1379C150.892 43.3908 151.561 43.5182 152.282 43.5182C153 43.5182 153.669 43.3908 154.291 43.1379C154.91 42.889 155.45 42.5228 155.907 42.0474C156.366 41.5719 156.725 41.0014 156.986 40.3398C157.247 39.6762 157.376 38.9377 157.376 38.1324C157.376 37.309 157.247 36.5665 156.986 35.9089C156.725 35.2574 156.366 34.693 155.907 34.2175C155.45 33.742 154.91 33.3758 154.291 33.127C153.669 32.8721 153 32.7466 152.282 32.7466ZM184.934 28.7083H201.84V32.9368H196.07V47.5546H190.731V32.9368H184.934V28.7083ZM165.356 28.7083H170.695V38.9923C170.695 40.6068 171.015 41.7661 171.652 42.4682C172.289 43.1642 173.167 43.5182 174.28 43.5182C175.395 43.5182 176.267 43.1642 176.896 42.4682C177.525 41.7661 177.839 40.6068 177.839 38.9923V28.7083H183.097V39.1542C183.097 41.9563 182.316 44.1151 180.752 45.6406C179.188 47.1661 177.013 47.9309 174.227 47.9309C171.441 47.9309 169.266 47.1661 167.703 45.6406C166.139 44.1151 165.356 41.9563 165.356 39.1542V28.7083ZM122.502 28.7083H127.786V36.5381L135.094 28.7083H140.972L133.265 37.046L141.376 47.5546H135.175L129.769 40.712L127.786 42.8344V47.5546H122.502V28.7083ZM84.4733 28.7083H99.2772V32.8276H89.758V36.004H98.1442V39.9877H89.758V43.4353H99.6272V47.5546H84.4733V28.7083ZM62.8107 28.7083H68.148V35.7916H75.4295V28.7083H80.7668V47.5546H75.4295V40.2042H68.148V47.5546H62.8107V28.7083ZM152.282 28.334C153.809 28.334 155.207 28.5788 156.474 29.0623C157.74 29.5459 158.841 30.2297 159.776 31.122C160.712 32.0082 161.443 33.044 161.975 34.2317C162.505 35.4112 162.77 36.7162 162.77 38.1324C162.77 39.5487 162.505 40.8557 161.975 42.0474C161.443 43.2411 160.712 44.279 159.776 45.1571C158.841 46.0392 157.74 46.717 156.474 47.2025C155.207 47.6861 153.809 47.9309 152.282 47.9309C150.772 47.9309 149.378 47.6861 148.102 47.2025C146.825 46.717 145.716 46.0331 144.771 45.1429C143.829 44.2547 143.096 43.2188 142.574 42.0332C142.054 40.8516 141.793 39.5487 141.793 38.1324C141.793 36.7162 142.054 35.4112 142.574 34.2317C143.096 33.044 143.829 32.0082 144.771 31.122C145.716 30.2297 146.825 29.5459 148.102 29.0623C149.378 28.5788 150.772 28.334 152.282 28.334ZM111.963 28.334C113.707 28.334 115.267 28.6375 116.64 29.2485C118.016 29.8595 119.161 30.7376 120.078 31.8868L116.681 34.954C116.07 34.2398 115.4 33.6915 114.674 33.3111C113.946 32.9368 113.132 32.7466 112.232 32.7466C111.459 32.7466 110.751 32.8721 110.103 33.127C109.456 33.3758 108.904 33.742 108.444 34.2175C107.985 34.693 107.627 35.2635 107.366 35.9231C107.105 36.5887 106.976 37.3272 106.976 38.1324C106.976 38.9377 107.105 39.6762 107.366 40.3398C107.627 41.0014 107.985 41.5719 108.444 42.0474C108.904 42.5228 109.456 42.889 110.103 43.1379C110.751 43.3908 111.459 43.5182 112.232 43.5182C113.132 43.5182 113.946 43.3281 114.674 42.9517C115.4 42.5714 116.07 42.0251 116.681 41.3089L120.078 44.3781C119.161 45.5091 118.016 46.3831 116.64 47.0022C115.267 47.6234 113.707 47.9309 111.963 47.9309C110.472 47.9309 109.092 47.6901 107.823 47.2147C106.557 46.7392 105.46 46.0655 104.536 45.1834C103.609 44.3053 102.887 43.2694 102.365 42.0737C101.843 40.884 101.582 39.5669 101.582 38.1324C101.582 36.698 101.843 35.3809 102.365 34.1892C102.887 32.9955 103.609 31.9596 104.536 31.0815C105.46 30.1974 106.557 29.5236 107.823 29.0482C109.092 28.5727 110.472 28.334 111.963 28.334ZM52.2718 28.334C54.0138 28.334 55.5737 28.6375 56.9494 29.2485C58.3252 29.8595 59.4704 30.7376 60.3869 31.8868L56.9899 34.954C56.3789 34.2398 55.7092 33.6915 54.9809 33.3111C54.2525 32.9368 53.4392 32.7466 52.5409 32.7466C51.768 32.7466 51.0578 32.8721 50.4104 33.127C49.763 33.3758 49.2106 33.742 48.7514 34.2175C48.2941 34.693 47.934 35.2635 47.675 35.9231C47.414 36.5887 47.2825 37.3272 47.2825 38.1324C47.2825 38.9377 47.414 39.6762 47.675 40.3398C47.934 41.0014 48.2941 41.5719 48.7514 42.0474C49.2106 42.5228 49.763 42.889 50.4104 43.1379C51.0578 43.3908 51.768 43.5182 52.5409 43.5182C53.4392 43.5182 54.2525 43.3281 54.9809 42.9517C55.7092 42.5714 56.3789 42.0251 56.9899 41.3089L60.3869 44.3781C59.4704 45.5091 58.3252 46.3831 56.9494 47.0022C55.5737 47.6234 54.0138 47.9309 52.2718 47.9309C50.7786 47.9309 49.3988 47.6901 48.1323 47.2147C46.8657 46.7392 45.7691 46.0655 44.8425 45.1834C43.9179 44.3053 43.1936 43.2694 42.6716 42.0737C42.1516 40.884 41.8906 39.5669 41.8906 38.1324C41.8906 36.698 42.1516 35.3809 42.6716 34.1892C43.1936 32.9955 43.9179 31.9596 44.8425 31.0815C45.7691 30.1974 46.8657 29.5236 48.1323 29.0482C49.3988 28.5727 50.7786 28.334 52.2718 28.334Z" fill="white"/>
<path fill-rule="evenodd" clip-rule="evenodd" d="M264.288 49.3329C264.12 49.3329 263.954 49.3511 263.79 49.3835C263.626 49.4199 263.466 49.4684 263.31 49.5372C263.157 49.604 263.009 49.687 262.871 49.782C262.732 49.8812 262.602 49.9904 262.485 50.1159C262.366 50.2393 262.26 50.3748 262.167 50.5185C262.074 50.6642 261.995 50.8179 261.933 50.9818C261.868 51.1396 261.819 51.3076 261.787 51.4795C261.755 51.6515 261.738 51.8275 261.738 51.9995C261.738 52.1755 261.755 52.3475 261.787 52.5195C261.819 52.6914 261.868 52.8594 261.933 53.0212C261.995 53.1851 262.074 53.3389 262.167 53.4845C262.26 53.6282 262.366 53.7637 262.485 53.8872C262.602 54.0085 262.732 54.1219 262.871 54.2169C263.009 54.3161 263.157 54.397 263.31 54.4658C263.466 54.5346 263.626 54.5831 263.79 54.6155C263.954 54.6519 264.12 54.6701 264.288 54.6701C264.454 54.6701 264.62 54.6519 264.785 54.6155C264.949 54.5831 265.107 54.5346 265.263 54.4658C265.417 54.397 265.564 54.3161 265.704 54.2169C265.842 54.1219 265.971 54.0085 266.088 53.8872C266.208 53.7637 266.313 53.6282 266.406 53.4845C266.499 53.3389 266.578 53.1851 266.641 53.0212C266.705 52.8594 266.754 52.6914 266.786 52.5195C266.819 52.3475 266.837 52.1755 266.837 51.9995C266.837 51.8275 266.819 51.6515 266.786 51.4795C266.754 51.3076 266.705 51.1396 266.641 50.9818C266.578 50.8179 266.499 50.6642 266.406 50.5185C266.313 50.3748 266.208 50.2393 266.088 50.1159C265.971 49.9904 265.842 49.8812 265.704 49.782C265.564 49.687 265.417 49.604 265.263 49.5372C265.107 49.4684 264.949 49.4199 264.785 49.3835C264.62 49.3511 264.454 49.3329 264.288 49.3329ZM255.096 49.3329C254.93 49.3329 254.764 49.3511 254.601 49.3835C254.437 49.4199 254.275 49.4684 254.121 49.5372C253.967 49.604 253.82 49.687 253.682 49.782C253.542 49.8812 253.413 49.9904 253.294 50.1159C253.176 50.2393 253.071 50.3748 252.978 50.5185C252.885 50.6642 252.806 50.8179 252.743 50.9818C252.678 51.1396 252.63 51.3076 252.598 51.4795C252.565 51.6515 252.549 51.8275 252.549 51.9995C252.549 52.1755 252.565 52.3475 252.598 52.5195C252.63 52.6914 252.678 52.8594 252.743 53.0212C252.806 53.1851 252.885 53.3389 252.978 53.4845C253.071 53.6282 253.176 53.7637 253.294 53.8872C253.413 54.0085 253.542 54.1219 253.682 54.2169C253.82 54.3161 253.967 54.397 254.121 54.4658C254.275 54.5346 254.437 54.5831 254.601 54.6155C254.764 54.6519 254.93 54.6701 255.096 54.6701C255.264 54.6701 255.43 54.6519 255.594 54.6155C255.758 54.5831 255.918 54.5346 256.073 54.4658C256.227 54.397 256.373 54.3161 256.512 54.2169C256.652 54.1219 256.782 54.0085 256.899 53.8872C257.018 53.7637 257.123 53.6282 257.217 53.4845C257.31 53.3389 257.389 53.1851 257.453 53.0212C257.516 52.8594 257.565 52.6914 257.597 52.5195C257.629 52.3475 257.645 52.1755 257.645 51.9995C257.645 51.8275 257.629 51.6515 257.597 51.4795C257.565 51.3076 257.516 51.1396 257.453 50.9818C257.389 50.8179 257.31 50.6642 257.217 50.5185C257.123 50.3748 257.018 50.2393 256.899 50.1159C256.782 49.9904 256.652 49.8812 256.512 49.782C256.373 49.687 256.227 49.604 256.073 49.5372C255.918 49.4684 255.758 49.4199 255.594 49.3835C255.43 49.3511 255.264 49.3329 255.096 49.3329ZM265.239 35.8056C265.655 35.8198 266.066 35.9958 266.372 36.3216C266.983 36.9832 266.944 38.0089 266.287 38.6199L260.118 44.3315C259.788 44.641 259.365 44.7847 258.948 44.7665H258.928C258.513 44.7847 258.091 44.641 257.761 44.3315L254.667 41.4666C254.008 40.8617 253.969 39.8298 254.582 39.1723C255.193 38.5168 256.223 38.4763 256.883 39.0873L258.938 40.9932L264.071 36.2346C264.401 35.9331 264.824 35.7874 265.239 35.8056ZM244.149 27.3324L238.989 27.3385C238.239 27.3243 237.565 28.0304 237.593 28.8134C237.565 29.5964 238.233 30.3247 238.989 30.2984H243.317C244.747 33.7743 246.143 37.2684 247.594 40.7383L247.74 40.8475L249.943 46.0755C250.453 47.4412 251.942 48.4285 253.468 48.3921C257.617 48.388 261.765 48.388 265.914 48.3921C267.422 48.4427 268.913 47.4958 269.447 46.1524C271.076 42.2678 272.718 38.3893 274.349 34.5108C274.612 33.9281 274.626 33.1977 274.187 32.6919C273.789 32.2023 273.107 32.0485 272.488 32.0667C264.255 32.0708 256.021 32.0667 247.786 32.0667H247.149L245.632 28.3521C245.539 28.0527 245.387 27.6865 245.166 27.5104C244.891 27.3506 244.484 27.3142 244.149 27.3324ZM256.743 11.4521C271.517 11.4521 283.492 23.4094 283.492 38.1546C283.492 52.8998 271.517 64.8571 256.743 64.8571C241.972 64.8571 229.994 52.8998 229.994 38.1546C229.994 23.4094 241.972 11.4521 256.743 11.4521Z" fill="white"/>
</svg>
