<svg width="57" height="57" viewBox="0 0 57 57" fill="none" xmlns="http://www.w3.org/2000/svg">
<circle cx="28.5" cy="28.5" r="28.5" fill="#1F4172"/>
<g clip-path="url(#clip0_265_148)">
<path d="M28.085 16.2161C27.922 16.0766 27.7145 16 27.5 16C27.2855 16 27.078 16.0766 26.915 16.2161L14 27.2861V40.3001C14 41.0161 14.2845 41.7029 14.7908 42.2092C15.2972 42.7156 15.9839 43.0001 16.7 43.0001H23.9C24.1387 43.0001 24.3676 42.9052 24.5364 42.7365C24.7052 42.5677 24.8 42.3388 24.8 42.1001V36.7001C24.8 35.984 25.0845 35.2972 25.5908 34.7909C26.0972 34.2845 26.7839 34.0001 27.5 34.0001C28.2161 34.0001 28.9028 34.2845 29.4092 34.7909C29.9155 35.2972 30.2 35.984 30.2 36.7001V42.1001C30.2 42.3388 30.2948 42.5677 30.4636 42.7365C30.6324 42.9052 30.8613 43.0001 31.1 43.0001H38.3C39.0161 43.0001 39.7028 42.7156 40.2092 42.2092C40.7155 41.7029 41 41.0161 41 40.3001V27.2861L28.085 16.2161Z" fill="#F1B4BB"/>
</g>
<defs>
<clipPath id="clip0_265_148">
<rect width="27" height="27" fill="white" transform="translate(14 17)"/>
</clipPath>
</defs>
</svg>
