<svg width="43" height="67" viewBox="0 0 43 67" fill="none" xmlns="http://www.w3.org/2000/svg">
<mask id="mask0_260_1065" style="mask-type:luminance" maskUnits="userSpaceOnUse" x="8" y="0" width="27" height="43">
<path d="M8.13477 0H34.5516V42.3958H8.13477V0Z" fill="white"/>
</mask>
<g mask="url(#mask0_260_1065)">
<path d="M26.9266 17.2914C24.1365 17.2914 24.1365 15.6296 21.3438 15.6296C18.555 15.6296 18.555 17.2914 15.7622 17.2914C13.1441 17.2914 12.984 15.8282 10.6648 15.6475C10.6556 15.3847 10.649 15.1443 10.6423 14.9159H32.0465C32.0399 15.1443 32.0333 15.3847 32.024 15.6475C29.7088 15.8282 29.5474 17.2914 26.9266 17.2914ZM28.5737 27.0475C27.7852 27.0475 27.1463 26.3278 27.1463 25.4364C27.1463 24.548 27.7852 23.8253 28.5737 23.8253C29.3622 23.8253 30.0025 24.548 30.0025 25.4364C30.0025 26.3278 29.3622 27.0475 28.5737 27.0475ZM25.8524 37.2246C24.9448 37.2246 24.2106 36.3945 24.2106 35.3717C24.2106 34.3489 24.9448 33.5202 25.8524 33.5202C26.7586 33.5202 27.4942 34.3489 27.4942 35.3717C27.4942 36.3945 26.7586 37.2246 25.8524 37.2246ZM20.5817 20.5464C20.5817 19.8551 21.0792 19.2952 21.6917 19.2952C22.3042 19.2952 22.8003 19.8551 22.8003 20.5464C22.8003 21.2363 22.3042 21.7962 21.6917 21.7962C21.0792 21.7962 20.5817 21.2363 20.5817 20.5464ZM21.9047 30.7624C20.7497 30.7624 19.8131 29.7067 19.8131 28.4047C19.8131 27.0998 20.7497 26.0441 21.9047 26.0441C23.0596 26.0441 23.995 27.0998 23.995 28.4047C23.995 29.7067 23.0596 30.7624 21.9047 30.7624ZM15.9342 35.8435C14.7964 35.8435 13.8743 34.8028 13.8743 33.5202C13.8743 32.2346 14.7964 31.1939 15.9342 31.1939C17.0732 31.1939 17.9953 32.2346 17.9953 33.5202C17.9953 34.8028 17.0732 35.8435 15.9342 35.8435ZM13.3954 23.8253C13.3954 22.9369 14.0357 22.2157 14.8229 22.2157C15.6127 22.2157 16.2504 22.9369 16.2504 23.8253C16.2504 24.7167 15.6127 25.4364 14.8229 25.4364C14.0357 25.4364 13.3954 24.7167 13.3954 23.8253ZM14.1535 1.46729C14.1257 1.37024 14.1588 1.29707 14.1826 1.26124C14.2051 1.2269 14.2567 1.16717 14.3466 1.16717H17.2611C17.3497 1.16717 17.4278 1.23138 17.4556 1.32694L19.354 8.00717H16.0122L14.1535 1.46729ZM34.5165 12.1581L34.4582 11.2159C34.3471 9.41668 33.0533 8.00717 31.512 8.00717H20.4177L18.42 0.976051C18.2573 0.407171 17.7916 0.0234375 17.2611 0.0234375H14.3466C13.9537 0.0234375 13.5952 0.229489 13.3637 0.587838C13.1321 0.946188 13.0673 1.39413 13.1877 1.81519L14.9486 8.00717H11.1768C9.63557 8.00717 8.34171 9.41668 8.23058 11.2159L8.17237 12.1596C8.12871 12.8867 8.3523 13.6034 8.78623 14.129C9.02436 14.4172 9.31144 14.6292 9.62366 14.7606C9.74273 18.7875 10.0669 29.2932 10.3632 33.0991C10.6939 37.359 13.1321 42.3371 18.9201 42.3371H23.7687C29.5567 42.3371 31.9949 37.359 32.3256 33.0991C32.622 29.2932 32.9461 18.7875 33.0652 14.7606C33.3774 14.6292 33.6645 14.4172 33.9026 14.129C34.3365 13.6034 34.5601 12.8867 34.5165 12.1581Z" fill="#F8909F"/>
</g>
<path d="M5.58634 54.3827C6.28751 54.3962 6.38012 53.7272 6.60899 53.0195C7.04425 51.6219 7.55888 49.9855 7.20829 48.5401C6.81405 47.047 5.24238 47.047 4.35599 48.0355C4.20518 47.374 3.90486 46.6842 3.25264 46.4647C2.55677 46.2318 1.79474 46.5169 1.31716 47.053C0.552485 47.9205 0.289216 49.1478 0.146336 50.2333C0.060344 50.8351 -0.0666601 51.5816 0.0418224 52.2222C0.151628 52.8553 0.770773 53.0837 1.30789 53.0927C2.18634 53.0464 2.10696 51.2755 2.20751 50.4065C2.25646 49.9616 2.31996 49.0538 2.60704 48.6984C2.85311 48.4446 2.90074 48.7417 2.93778 49.0523C3.02245 49.766 2.22338 52.0161 3.8149 51.9952C4.32424 51.9878 4.51607 51.065 4.6735 50.5917C4.73436 50.3976 5.09685 49.2449 5.27413 49.7914C5.3879 50.1423 5.04261 51.3188 4.90237 51.7533C4.74362 52.2714 4.37055 52.9986 4.4486 53.5675C4.53062 54.1841 5.14448 54.3663 5.58634 54.3827Z" fill="#8B4968"/>
<path d="M8.32444 54.885C8.80732 55.0866 9.34709 55.0238 9.57596 54.6446C9.83262 54.2385 9.89215 53.4352 10.4121 49.5366C10.4438 49.2917 10.5126 49.0543 10.5086 48.8363C10.4994 48.5049 10.3446 48.2749 10.1329 48.154C9.78102 47.9524 9.10896 47.833 8.79938 48.039C8.58639 48.1779 8.52156 48.6766 8.42234 49.35C8.32047 50.0398 8.26755 50.7565 8.16701 51.4389C7.87067 53.1559 7.75954 53.904 7.75689 54.2594C7.75292 54.5699 7.95798 54.7327 8.32444 54.885Z" fill="#8B4968"/>
<path d="M12.6607 55.7113C13.3751 55.7964 14.2721 55.8099 14.9547 55.5306C15.6533 55.244 15.5977 53.9405 14.7973 53.8091C14.3396 53.7419 13.8024 53.9375 13.3447 53.8778C12.7203 53.8807 13.006 52.9475 13.3844 50.448C13.4664 49.9508 13.6093 49.2998 13.5908 49.1177C13.5259 48.4816 12.5536 48.2517 11.9754 48.5368C11.5587 48.7399 11.4304 49.5477 11.2081 51.2618C11.0824 52.2667 10.9832 53.3104 11.1221 54.3242C11.2518 55.2783 11.863 55.6247 12.6607 55.7113Z" fill="#8B4968"/>
<path d="M17.3184 56.1223C17.8211 56.2433 18.3477 56.0925 18.5263 55.6819C18.6466 55.422 18.681 55.0383 18.6903 53.9633C19.1282 54.2708 19.541 55.1145 19.8796 55.6639C20.1548 56.1104 20.1508 56.2119 20.5649 56.0492C20.9473 55.9013 21.4566 55.5624 21.405 55.2533C21.3402 54.9009 20.4168 53.1495 19.9273 52.5508C20.4088 51.8863 20.9473 50.8232 21.1841 50.2424C21.4937 49.4779 20.5239 49.0479 20.0821 49.1345C19.7698 49.1987 19.1957 50.4828 18.6982 51.4294L18.7035 50.4903C18.7035 50.2424 18.7406 49.996 18.7088 49.7825C18.6586 49.4555 18.476 49.2525 18.2511 49.1674C17.8767 49.0255 17.1967 49.0165 16.9175 49.2704C16.7231 49.4421 16.7231 49.9453 16.7098 50.6276C16.6966 51.3279 16.7363 52.0461 16.7231 52.7359C16.649 54.4829 16.6331 55.2429 16.6754 55.5938C16.7125 55.9028 16.9347 56.0312 17.3184 56.1223Z" fill="#8B4968"/>
<path d="M29.458 55.4802C29.8945 55.3517 29.9342 54.9605 29.8773 54.5216C29.7053 53.1613 29.5334 52.049 29.5069 50.6887C29.5043 50.5857 29.5651 50.5021 29.6564 50.4991C30.0202 50.4901 30.4766 50.42 30.769 50.2049C31.1315 49.9392 31.0892 49.2404 30.9251 48.8567C30.7214 48.3923 29.8535 48.5297 28.3573 48.7058C27.8241 48.7775 26.693 48.8776 26.0831 49.0956C25.759 49.2105 25.7484 49.5032 25.7404 49.8212C25.7325 50.1572 25.7603 50.6081 25.9574 50.7738C26.1916 50.9948 26.8226 50.9291 27.3492 50.8664C27.455 50.8545 27.5436 50.9127 27.5476 51.0321C27.5661 51.7249 27.6164 52.1908 27.6984 52.9015C27.7699 53.5869 27.8281 54.7037 28.0411 55.3652C28.18 55.8027 28.9102 55.6399 29.458 55.4802Z" fill="#8B4968"/>
<path d="M35.6738 54.6451C36.2016 54.4883 36.6858 54.4375 36.8988 54.018C36.9689 53.8821 36.9729 53.6805 36.9425 53.4536C36.8697 52.922 36.752 52.5905 36.4093 52.6129C36.0521 52.6368 35.6764 52.9175 35.347 53.0221C35.1009 53.1102 34.5744 53.3177 34.4064 53.1445C34.2939 53.0221 34.2066 52.6413 34.1775 52.3337C34.155 52.062 34.1894 51.9933 34.3839 51.9604C34.6842 51.9142 35.1274 51.8529 35.2689 51.6409C35.384 51.3647 35.2451 50.9944 35.134 50.6107C34.8972 50.0702 34.0968 50.754 33.9473 50.4136C33.8878 50.2867 33.8613 49.9447 33.8547 49.6342C33.8613 49.3549 33.9235 49.3579 34.282 49.2907C34.6405 49.231 35.0255 49.2265 35.3721 49.1444C35.8061 49.025 35.9648 48.8697 35.8987 48.2411C35.8722 47.9514 35.8352 47.7767 35.7426 47.6841C35.2491 47.1735 33.2144 47.8349 32.6124 48.0067C31.9443 48.2023 31.8054 48.5621 31.8372 49.3012C31.8703 50.1373 32.0078 50.9586 32.1454 51.7798C32.4682 53.785 32.4669 55.2886 34.2185 54.9124C34.4738 54.8765 35.0877 54.8228 35.6738 54.6451Z" fill="#8B4968"/>
<path d="M38.8273 53.7969C39.5801 53.7998 40.141 53.4639 39.9982 52.562C39.8341 51.8961 40.0154 51.7423 40.5353 51.5616C41.1108 51.3451 41.3529 51.5004 41.4706 52.2067C41.6003 52.892 42.3464 52.7994 42.7499 52.3366C43.0674 51.9364 43.0357 51.5213 42.9113 51.0122C42.7578 50.3866 42.4469 49.5728 42.2419 48.9636C41.8159 47.7079 41.0221 46.1058 39.6211 46.3417C38.2188 46.5761 37.7253 48.0767 37.6803 49.4907C37.6499 50.3492 37.7491 51.2033 37.8814 52.0574C37.9846 52.7323 38.0269 53.764 38.8273 53.7969ZM39.5378 50.1477C39.4915 49.5773 39.3843 48.5052 39.9082 48.341C40.4175 48.1812 40.6848 49.2309 40.8647 49.74C40.8898 49.8117 40.8528 49.8864 40.788 49.9058L40.5326 49.9864C40.2561 50.073 39.9757 50.1432 39.6992 50.2656C39.6211 50.2985 39.5444 50.2432 39.5378 50.1477Z" fill="#8B4968"/>
<path d="M4.15391 65.939C4.62488 65.8853 5.07337 65.5702 5.09189 64.9341C5.10909 64.3832 4.65002 64.0831 4.1764 63.8651C4.05337 63.7949 3.68426 63.6814 3.77819 63.4634C4.015 63.0095 4.41983 63.8486 4.86831 63.6904C5.09454 63.6336 5.18847 63.3664 5.07998 63.1513C4.87889 62.678 4.42379 62.4944 3.92107 62.4824C3.34294 62.5033 2.90239 62.8557 2.89445 63.4634C2.89445 64.0905 3.3006 64.1965 3.72792 64.4429C3.86021 64.525 4.21609 64.646 4.08644 64.9058C3.92107 65.1521 3.7094 64.9625 3.51889 64.8251C3.3641 64.6624 3.18947 64.5564 2.94076 64.7311C2.73702 64.8774 2.7648 65.2178 2.88387 65.4164C3.14582 65.833 3.68823 65.9913 4.15391 65.939Z" fill="#FF9F6F"/>
<path d="M6.89693 65.9209C7.22106 65.909 7.43273 65.6342 7.57164 65.3505C7.87328 65.9254 8.59561 66.1404 8.93561 65.5088C9.2518 64.8921 9.19094 64.0709 9.14067 63.3692C9.11157 63.0123 9.14067 62.6928 8.81787 62.6032C8.61281 62.5509 8.31118 62.5509 8.20799 62.8227C8.11009 63.0735 8.20402 63.4587 8.22122 63.7185C8.23974 63.9365 8.27149 64.5233 8.18285 64.6697C8.04262 64.8966 7.99896 64.3173 7.99234 64.2202C7.97118 63.9813 7.98176 63.5319 7.7476 63.4587C7.01997 63.2318 7.14565 64.374 7.03055 64.6906C6.98028 64.8279 6.92604 64.9578 6.84005 64.807C6.74612 64.6055 6.81491 64.1799 6.84005 63.9694C6.88635 63.5558 7.11258 62.754 6.71437 62.6121C6.46697 62.5435 6.1574 62.5629 6.03966 62.8391C5.92059 63.1183 5.89942 63.4781 5.87429 63.7663C5.82401 64.2844 5.81343 64.8847 6.07141 65.3864C6.23281 65.6984 6.55296 65.9343 6.89693 65.9209Z" fill="#FF9F6F"/>
<path d="M11.334 65.878C11.592 65.8571 11.8222 65.8825 11.9545 65.7078C11.9982 65.6511 12.0153 65.5585 12.0193 65.448C12.0273 65.1927 11.9982 65.027 11.8367 65.0031C11.6674 64.9792 11.4703 65.0717 11.3089 65.0882C11.1872 65.1046 10.9252 65.1494 10.8604 65.0508C10.8167 64.9822 10.8062 64.797 10.8167 64.6507C10.8273 64.5208 10.8498 64.4924 10.9424 64.4969C11.0866 64.5044 11.2983 64.5208 11.3803 64.4357C11.4557 64.3177 11.42 64.1326 11.3989 63.9414C11.3301 63.6667 10.9027 63.9056 10.8604 63.7309C10.8419 63.6667 10.8564 63.504 10.8776 63.3576C10.9027 63.2292 10.9318 63.2367 11.1038 63.2412C11.2771 63.2486 11.4557 63.286 11.6251 63.2815C11.8367 63.2695 11.9227 63.2128 11.9399 62.9127C11.9518 62.7753 11.9479 62.6902 11.9122 62.6365C11.7217 62.3498 10.7202 62.4543 10.4265 62.4752C10.0997 62.4991 10.0058 62.6529 9.96344 63.0023C9.91317 63.395 9.91317 63.7921 9.91317 64.1893C9.90523 65.1569 9.78749 65.8571 10.6342 65.8571C10.7559 65.8661 11.0469 65.9019 11.334 65.878Z" fill="#FF9F6F"/>
<path d="M14.1748 65.878C14.4328 65.8571 14.663 65.8825 14.7953 65.7078C14.839 65.6511 14.8562 65.5585 14.8601 65.448C14.8681 65.1927 14.839 65.027 14.6776 65.0031C14.5082 64.9792 14.3111 65.0717 14.1497 65.0882C14.028 65.1046 13.7661 65.1494 13.7012 65.0508C13.6576 64.9822 13.647 64.797 13.6576 64.6507C13.6682 64.5208 13.6906 64.4924 13.7832 64.4969C13.9275 64.5044 14.1391 64.5208 14.2211 64.4357C14.2966 64.3177 14.2608 64.1326 14.2397 63.9414C14.1709 63.6667 13.7436 63.9056 13.7012 63.7309C13.6827 63.6667 13.6973 63.504 13.7184 63.3576C13.7436 63.2292 13.7727 63.2367 13.9447 63.2412C14.118 63.2486 14.2966 63.286 14.4659 63.2815C14.6776 63.2695 14.7636 63.2128 14.7808 62.9127C14.7927 62.7753 14.7887 62.6902 14.753 62.6365C14.5625 62.3498 13.561 62.4543 13.2673 62.4752C12.9405 62.4991 12.8466 62.6529 12.8043 63.0023C12.754 63.395 12.754 63.7921 12.754 64.1893C12.746 65.1569 12.6283 65.8571 13.475 65.8571C13.5967 65.8661 13.8878 65.9019 14.1748 65.878Z" fill="#FF9F6F"/>
<path d="M17.0436 65.7588C17.2553 65.7214 17.291 65.5393 17.2831 65.3287C17.2619 64.6763 17.2302 64.1417 17.2765 63.4982C17.2804 63.4489 17.3122 63.4131 17.3558 63.4161C17.5278 63.4325 17.7461 63.425 17.8943 63.3399C18.0768 63.2339 18.0874 62.9024 18.0266 62.7113C17.9512 62.4814 17.5344 62.4963 16.82 62.4963C16.566 62.5008 16.0276 62.4843 15.7299 62.553C15.5712 62.5904 15.554 62.7277 15.5354 62.8785C15.5182 63.0353 15.5103 63.2503 15.5963 63.3399C15.6968 63.4564 15.9985 63.4608 16.2498 63.4608C16.3001 63.4608 16.3398 63.4937 16.3358 63.5504C16.3147 63.8789 16.3186 64.1014 16.3252 64.4418C16.3292 64.7703 16.3067 65.3004 16.3795 65.6244C16.4258 65.8394 16.7777 65.8021 17.0436 65.7588Z" fill="#FF9F6F"/>
<path d="M26.3507 65.7857C27.0043 65.8305 27.7544 65.6364 28.0415 64.963C28.4106 63.882 28.0415 63.0966 27.2623 62.7472C27.0188 62.6382 26.7701 62.5934 26.5082 62.6054C26.1285 62.6188 25.9062 62.6621 25.7872 62.9622C25.6191 63.3878 25.6363 64.2344 25.7197 65.2064C25.7554 65.62 25.8877 65.7544 26.3507 65.7857ZM26.5558 63.6954C26.577 63.3833 26.6378 63.2833 26.9103 63.3833C27.0691 63.449 27.2411 63.5371 27.3482 63.6954C27.7002 64.2747 27.3231 65.0929 26.7595 65.0646C26.6735 65.0616 26.6087 64.9959 26.5836 64.8779C26.5333 64.4972 26.5307 64.0761 26.5558 63.6954Z" fill="#FF9F6F"/>
<path d="M30.6224 65.8817C30.8486 65.9071 31.2905 65.5666 31.0788 65.274C30.9201 65.0396 30.7309 64.7648 30.5443 64.5453C30.8129 64.4319 31.0497 64.2452 31.1211 63.9018C31.3196 62.9537 30.7269 62.4027 29.4886 62.5117C29.2121 62.5356 29.0507 62.552 28.9607 62.8402C28.8933 63.0552 28.9184 63.318 28.9184 64.2706C28.9184 65.5786 28.8179 65.8339 29.2478 65.8668C29.4886 65.8817 29.646 65.8384 29.7254 65.6398C29.7942 65.4696 29.7863 65.2785 29.7823 64.9335C30.0125 65.3188 30.4504 65.8623 30.6224 65.8817ZM29.7611 63.8077C29.7611 63.6584 29.7506 63.5076 29.7691 63.3628C29.7717 63.3225 29.8008 63.3016 29.8365 63.3016C30.0231 63.3016 30.4689 63.3225 30.5007 63.4957C30.5655 63.857 30.289 63.9018 29.822 63.9137C29.7823 63.9137 29.7611 63.8809 29.7611 63.8077Z" fill="#FF9F6F"/>
<path d="M32.2502 65.8691C32.491 65.9169 32.7384 65.8362 32.8178 65.6377C32.9064 65.4227 32.8747 65.0419 32.8284 63.171C32.8244 63.0531 32.839 62.9351 32.8204 62.8336C32.7927 62.6798 32.7027 62.5872 32.5942 62.5499C32.4156 62.4902 32.0915 62.4976 31.9632 62.623C31.8732 62.7082 31.8798 62.9471 31.8838 63.2711C31.8878 63.604 31.9169 63.9445 31.9195 64.2729C31.9089 65.1031 31.9129 65.463 31.938 65.6287C31.9592 65.775 32.0664 65.8318 32.2502 65.8691Z" fill="#FF9F6F"/>
<path d="M35.8857 65.723C36.0432 65.5976 36.022 65.1885 36.0286 64.957C36.0432 64.4106 36.0498 63.8641 36.0498 63.3206C36.0498 62.9354 36.108 62.5785 35.727 62.5218C35.3976 62.4814 35.2176 62.4785 35.1488 62.68C35.0523 62.9473 35.0959 63.4385 35.1065 63.7372C35.1065 63.7536 35.0853 63.7581 35.0774 63.7461C34.9266 63.4132 34.5323 62.68 34.3921 62.5949C34.2519 62.5098 34.0759 62.5307 33.8933 62.5636C33.646 62.6069 33.6883 62.9801 33.6632 63.5431C33.638 63.9283 33.6235 64.3135 33.6208 64.6972C33.6168 65.0018 33.5163 65.5692 33.7677 65.7066C33.9608 65.8126 34.2982 65.8275 34.4675 65.7111C34.6077 65.614 34.5575 65.3497 34.5575 65.1765C34.5575 64.9078 34.5575 64.645 34.5681 64.3777C34.5681 64.3613 34.5866 64.3583 34.5932 64.3702C34.7758 64.7823 34.9451 65.302 35.2322 65.6334C35.3751 65.7917 35.7124 65.8604 35.8857 65.723Z" fill="#FF9F6F"/>
<path d="M37.1467 65.8689C37.3875 65.9167 37.6349 65.8361 37.7143 65.6375C37.7672 65.5121 37.7778 65.3299 37.7672 64.8193C37.9789 64.9566 38.1879 65.3493 38.3559 65.6046C38.4922 65.8122 38.4922 65.86 38.6867 65.7748C38.8653 65.6987 39.1021 65.5285 39.0743 65.3822C39.0386 65.2164 38.5755 64.4012 38.3347 64.1264C38.553 63.8024 38.7938 63.2873 38.8983 63.0081C39.0346 62.6393 38.5676 62.4526 38.3599 62.5019C38.213 62.5378 37.9577 63.1574 37.7354 63.6158L37.7249 63.1708C37.7209 63.0529 37.7354 62.9349 37.7169 62.8334C37.6891 62.6796 37.5992 62.587 37.4907 62.5497C37.3121 62.49 36.988 62.4974 36.8596 62.6229C36.7697 62.708 36.7763 62.9469 36.7803 63.2709C36.7842 63.6038 36.8133 63.9443 36.816 64.2728C36.8054 65.1029 36.8094 65.4628 36.8345 65.6285C36.8557 65.7748 36.9628 65.8316 37.1467 65.8689Z" fill="#FF9F6F"/>
<mask id="mask1_260_1065" style="mask-type:luminance" maskUnits="userSpaceOnUse" x="19" y="61" width="6" height="6">
<path d="M19.5215 61.75H24.2339V66.9476H19.5215V61.75Z" fill="white"/>
</mask>
<g mask="url(#mask1_260_1065)">
<mask id="mask2_260_1065" style="mask-type:luminance" maskUnits="userSpaceOnUse" x="19" y="61" width="6" height="6">
<path d="M23.1029 61.8675C22.4057 61.7615 22.0155 62.3677 21.8488 63.168C21.6821 62.3707 21.2944 61.7615 20.5946 61.8675C19.8895 61.972 19.4661 62.9829 19.6725 63.934C19.8193 64.6029 20.5509 66.114 21.8488 66.9367C23.1492 66.114 23.8782 64.6059 24.025 63.934C24.2341 62.9829 23.812 61.972 23.1029 61.8675Z" fill="white"/>
</mask>
<g mask="url(#mask2_260_1065)">
<path d="M19.6201 61.8516H24.0785V66.9297H19.6201V61.8516Z" fill="#F8909F"/>
</g>
</g>
</svg>
