<svg width="43" height="68" viewBox="0 0 43 68" fill="none" xmlns="http://www.w3.org/2000/svg">
<mask id="mask0_247_244" style="mask-type:luminance" maskUnits="userSpaceOnUse" x="8" y="0" width="27" height="43">
<path d="M8.13477 0H34.5516V42.7667H8.13477V0Z" fill="white"/>
</mask>
<g mask="url(#mask0_247_244)">
<path d="M26.9266 17.4425C24.1365 17.4425 24.1365 15.7661 21.3438 15.7661C18.555 15.7661 18.555 17.4425 15.7622 17.4425C13.1441 17.4425 12.984 15.9664 10.6648 15.7842C10.6556 15.5191 10.649 15.2766 10.6423 15.0462H32.0465C32.0399 15.2766 32.0333 15.5191 32.024 15.7842C29.7088 15.9664 29.5474 17.4425 26.9266 17.4425ZM28.5737 27.284C27.7852 27.284 27.1463 26.558 27.1463 25.6588C27.1463 24.7626 27.7852 24.0336 28.5737 24.0336C29.3622 24.0336 30.0025 24.7626 30.0025 25.6588C30.0025 26.558 29.3622 27.284 28.5737 27.284ZM25.8524 37.5501C24.9448 37.5501 24.2106 36.7127 24.2106 35.681C24.2106 34.6492 24.9448 33.8133 25.8524 33.8133C26.7586 33.8133 27.4942 34.6492 27.4942 35.681C27.4942 36.7127 26.7586 37.5501 25.8524 37.5501ZM20.5817 20.726C20.5817 20.0286 21.0792 19.4638 21.6917 19.4638C22.3042 19.4638 22.8003 20.0286 22.8003 20.726C22.8003 21.4219 22.3042 21.9867 21.6917 21.9867C21.0792 21.9867 20.5817 21.4219 20.5817 20.726ZM21.9047 31.0314C20.7497 31.0314 19.8131 29.9665 19.8131 28.6531C19.8131 27.3367 20.7497 26.2718 21.9047 26.2718C23.0596 26.2718 23.995 27.3367 23.995 28.6531C23.995 29.9665 23.0596 31.0314 21.9047 31.0314ZM15.9342 36.1569C14.7964 36.1569 13.8743 35.1071 13.8743 33.8133C13.8743 32.5165 14.7964 31.4666 15.9342 31.4666C17.0732 31.4666 17.9953 32.5165 17.9953 33.8133C17.9953 35.1071 17.0732 36.1569 15.9342 36.1569ZM13.3954 24.0336C13.3954 23.1374 14.0357 22.4099 14.8229 22.4099C15.6127 22.4099 16.2504 23.1374 16.2504 24.0336C16.2504 24.9328 15.6127 25.6588 14.8229 25.6588C14.0357 25.6588 13.3954 24.9328 13.3954 24.0336ZM14.1535 1.47992C14.1257 1.38202 14.1588 1.30822 14.1826 1.27207C14.2051 1.23743 14.2567 1.17718 14.3466 1.17718H17.2611C17.3497 1.17718 17.4278 1.24194 17.4556 1.33834L19.354 8.07703H16.0122L14.1535 1.47992ZM34.5165 12.2642L34.4582 11.3138C34.3471 9.49887 33.0533 8.07703 31.512 8.07703H20.4177L18.42 0.984386C18.2573 0.410528 17.7916 0.0234375 17.2611 0.0234375H14.3466C13.9537 0.0234375 13.5952 0.231292 13.3637 0.592777C13.1321 0.954262 13.0673 1.40612 13.1877 1.83086L14.9486 8.07703H11.1768C9.63557 8.07703 8.34171 9.49887 8.23058 11.3138L8.17237 12.2657C8.12871 12.9993 8.3523 13.7222 8.78623 14.2524C9.02436 14.5431 9.31144 14.757 9.62366 14.8895C9.74273 18.9517 10.0669 29.5493 10.3632 33.3885C10.6939 37.6857 13.1321 42.7073 18.9201 42.7073H23.7687C29.5567 42.7073 31.9949 37.6857 32.3256 33.3885C32.622 29.5493 32.9461 18.9517 33.0652 14.8895C33.3774 14.757 33.6645 14.5431 33.9026 14.2524C34.3365 13.7222 34.5601 12.9993 34.5165 12.2642Z" fill="#F8909F"/>
</g>
<path d="M5.58634 54.859C6.28751 54.8725 6.38012 54.1978 6.60899 53.4838C7.04425 52.074 7.55888 50.4232 7.20829 48.9653C6.81405 47.4591 5.24238 47.4591 4.35599 48.4562C4.20518 47.7889 3.90486 47.0931 3.25264 46.8717C2.55677 46.6367 1.79474 46.9244 1.31716 47.4651C0.552485 48.3402 0.289216 49.5783 0.146336 50.6733C0.060344 51.2803 -0.0666601 52.0334 0.0418224 52.6795C0.151628 53.3181 0.770773 53.5486 1.30789 53.5576C2.18634 53.5109 2.10696 51.7246 2.20751 50.848C2.25646 50.3991 2.31996 49.4834 2.60704 49.1249C2.85311 48.8689 2.90074 49.1686 2.93778 49.4819C3.02245 50.2018 2.22338 52.4717 3.8149 52.4506C4.32424 52.443 4.51607 51.5122 4.6735 51.0348C4.73436 50.839 5.09685 49.6762 5.27413 50.2274C5.3879 50.5814 5.04261 51.7683 4.90237 52.2066C4.74362 52.7292 4.37055 53.4627 4.4486 54.0366C4.53062 54.6586 5.14448 54.8424 5.58634 54.859Z" fill="#8B4968"/>
<path d="M8.32444 55.3657C8.80732 55.5691 9.34709 55.5058 9.57596 55.1233C9.83262 54.7136 9.89215 53.9032 10.4121 49.9706C10.4438 49.7236 10.5126 49.4841 10.5086 49.2642C10.4994 48.9298 10.3446 48.6978 10.1329 48.5758C9.78102 48.3725 9.10896 48.252 8.79938 48.4599C8.58639 48.5999 8.52156 49.103 8.42234 49.7823C8.32047 50.4782 8.26755 51.2011 8.16701 51.8895C7.87067 53.6216 7.75954 54.3762 7.75689 54.7347C7.75292 55.0479 7.95798 55.2121 8.32444 55.3657Z" fill="#8B4968"/>
<path d="M12.6607 56.199C13.3751 56.2848 14.2721 56.2984 14.9547 56.0167C15.6533 55.7275 15.5977 54.4126 14.7973 54.2801C14.3396 54.2123 13.8024 54.4096 13.3447 54.3494C12.7203 54.3524 13.006 53.411 13.3844 50.8897C13.4664 50.3881 13.6093 49.7314 13.5908 49.5476C13.5259 48.906 12.5536 48.6741 11.9754 48.9617C11.5587 49.1666 11.4304 49.9814 11.2081 51.7105C11.0824 52.7242 10.9832 53.777 11.1221 54.7997C11.2518 55.7622 11.863 56.1116 12.6607 56.199Z" fill="#8B4968"/>
<path d="M17.3184 56.6137C17.8211 56.7357 18.3477 56.5836 18.5263 56.1694C18.6466 55.9073 18.681 55.5202 18.6903 54.4358C19.1282 54.7461 19.541 55.5971 19.8796 56.1513C20.1548 56.6017 20.1508 56.7041 20.5649 56.5399C20.9473 56.3908 21.4566 56.0489 21.405 55.7371C21.3402 55.3817 20.4168 53.6149 19.9273 53.0109C20.4088 52.3407 20.9473 51.2683 21.1841 50.6824C21.4937 49.9112 20.5239 49.4774 20.0821 49.5648C19.7698 49.6295 19.1957 50.9249 18.6982 51.8798L18.7035 50.9324C18.7035 50.6824 18.7406 50.4338 18.7088 50.2185C18.6586 49.8886 18.476 49.6838 18.2511 49.5979C17.8767 49.4548 17.1967 49.4458 16.9175 49.7018C16.7231 49.875 16.7231 50.3826 16.7098 51.071C16.6966 51.7774 16.7363 52.5018 16.7231 53.1977C16.649 54.9599 16.6331 55.7266 16.6754 56.0805C16.7125 56.3923 16.9347 56.5219 17.3184 56.6137Z" fill="#8B4968"/>
<path d="M29.458 55.9666C29.8945 55.8371 29.9342 55.4425 29.8773 54.9997C29.7053 53.6275 29.5334 52.5054 29.5069 51.1333C29.5043 51.0294 29.5651 50.945 29.6564 50.942C30.0202 50.933 30.4766 50.8622 30.769 50.6453C31.1315 50.3772 31.0892 49.6723 30.9251 49.2852C30.7214 48.8168 29.8535 48.9553 28.3573 49.1331C27.8241 49.2054 26.693 49.3063 26.0831 49.5262C25.759 49.6422 25.7484 49.9374 25.7404 50.2582C25.7325 50.5971 25.7603 51.052 25.9574 51.2191C26.1916 51.4421 26.8226 51.3758 27.3492 51.3125C27.455 51.3005 27.5436 51.3592 27.5476 51.4797C27.5661 52.1786 27.6164 52.6485 27.6984 53.3655C27.7699 54.0568 27.8281 55.1834 28.0411 55.8507C28.18 56.292 28.9102 56.1278 29.458 55.9666Z" fill="#8B4968"/>
<path d="M35.6738 55.1237C36.2016 54.9655 36.6858 54.9143 36.8988 54.4911C36.9689 54.354 36.9729 54.1507 36.9425 53.9217C36.8697 53.3855 36.752 53.0512 36.4093 53.0737C36.0521 53.0978 35.6764 53.381 35.347 53.4864C35.1009 53.5753 34.5744 53.7847 34.4064 53.61C34.2939 53.4864 34.2066 53.1024 34.1775 52.7921C34.155 52.518 34.1894 52.4487 34.3839 52.4155C34.6842 52.3689 35.1274 52.3071 35.2689 52.0932C35.384 51.8146 35.2451 51.441 35.134 51.0539C34.8972 50.5087 34.0968 51.1985 33.9473 50.8551C33.8878 50.7271 33.8613 50.3822 33.8547 50.0689C33.8613 49.7872 33.9235 49.7903 34.282 49.7225C34.6405 49.6622 35.0255 49.6577 35.3721 49.5749C35.8061 49.4544 35.9648 49.2977 35.8987 48.6636C35.8722 48.3714 35.8352 48.1952 35.7426 48.1018C35.2491 47.5867 33.2144 48.2539 32.6124 48.4272C31.9443 48.6245 31.8054 48.9875 31.8372 49.733C31.8703 50.5765 32.0078 51.4049 32.1454 52.2333C32.4682 54.2561 32.4669 55.7728 34.2185 55.3933C34.4738 55.3571 35.0877 55.3029 35.6738 55.1237Z" fill="#8B4968"/>
<path d="M38.8273 54.2685C39.5801 54.2716 40.141 53.9327 39.9982 53.0229C39.8341 52.3512 40.0154 52.196 40.5353 52.0138C41.1108 51.7954 41.3529 51.952 41.4706 52.6644C41.6003 53.3558 42.3464 53.2624 42.7499 52.7955C43.0674 52.3918 43.0357 51.9731 42.9113 51.4595C42.7578 50.8284 42.4469 50.0075 42.2419 49.393C41.8159 48.1263 41.0221 46.5102 39.6211 46.7481C38.2188 46.9846 37.7253 48.4983 37.6803 49.9247C37.6499 50.7907 37.7491 51.6523 37.8814 52.5138C37.9846 53.1946 38.0269 54.2354 38.8273 54.2685ZM39.5378 50.5874C39.4915 50.012 39.3843 48.9306 39.9082 48.7649C40.4175 48.6038 40.6848 49.6626 40.8647 50.1762C40.8898 50.2485 40.8528 50.3238 40.788 50.3434L40.5326 50.4247C40.2561 50.5121 39.9757 50.5829 39.6992 50.7064C39.6211 50.7395 39.5444 50.6838 39.5378 50.5874Z" fill="#8B4968"/>
<path d="M4.15391 66.5161C4.62488 66.4619 5.07337 66.1441 5.09189 65.5025C5.10909 64.9467 4.65002 64.6439 4.1764 64.424C4.05337 64.3532 3.68426 64.2388 3.77819 64.0189C4.015 63.561 4.41983 64.4075 4.86831 64.2478C5.09454 64.1906 5.18847 63.921 5.07998 63.7041C4.87889 63.2266 4.42379 63.0413 3.92107 63.0293C3.34294 63.0504 2.90239 63.4058 2.89445 64.0189C2.89445 64.6515 3.3006 64.7584 3.72792 65.0069C3.86021 65.0898 4.21609 65.2118 4.08644 65.4738C3.92107 65.7224 3.7094 65.5311 3.51889 65.3925C3.3641 65.2283 3.18947 65.1214 2.94076 65.2976C2.73702 65.4452 2.7648 65.7886 2.88387 65.989C3.14582 66.4092 3.68823 66.5688 4.15391 66.5161Z" fill="#FF9F6F"/>
<path d="M6.89693 66.497C7.22106 66.485 7.43273 66.2079 7.57164 65.9217C7.87328 66.5016 8.59561 66.7185 8.93561 66.0813C9.2518 65.4593 9.19094 64.6309 9.14067 63.923C9.11157 63.563 9.14067 63.2407 8.81787 63.1503C8.61281 63.0976 8.31118 63.0976 8.20799 63.3717C8.11009 63.6247 8.20402 64.0133 8.22122 64.2754C8.23974 64.4953 8.27149 65.0872 8.18285 65.2349C8.04262 65.4638 7.99896 64.8794 7.99234 64.7815C7.97118 64.5405 7.98176 64.0871 7.7476 64.0133C7.01997 63.7844 7.14565 64.9366 7.03055 65.2559C6.98028 65.3945 6.92604 65.5255 6.84005 65.3734C6.74612 65.1701 6.81491 64.7408 6.84005 64.5285C6.88635 64.1112 7.11258 63.3024 6.71437 63.1593C6.46697 63.09 6.1574 63.1096 6.03966 63.3883C5.92059 63.6699 5.89942 64.0329 5.87429 64.3236C5.82401 64.8463 5.81343 65.4517 6.07141 65.9578C6.23281 66.2726 6.55296 66.5106 6.89693 66.497Z" fill="#FF9F6F"/>
<path d="M11.334 66.455C11.592 66.4339 11.8222 66.4595 11.9545 66.2833C11.9982 66.2261 12.0153 66.1327 12.0193 66.0212C12.0273 65.7637 11.9982 65.5965 11.8367 65.5724C11.6674 65.5483 11.4703 65.6417 11.3089 65.6582C11.1872 65.6748 10.9252 65.72 10.8604 65.6206C10.8167 65.5513 10.8062 65.3645 10.8167 65.2169C10.8273 65.0859 10.8498 65.0573 10.9424 65.0618C11.0866 65.0693 11.2983 65.0859 11.3803 65C11.4557 64.881 11.42 64.6943 11.3989 64.5015C11.3301 64.2243 10.9027 64.4653 10.8604 64.2891C10.8419 64.2243 10.8564 64.0602 10.8776 63.9125C10.9027 63.783 10.9318 63.7905 11.1038 63.7951C11.2771 63.8026 11.4557 63.8403 11.6251 63.8357C11.8367 63.8237 11.9227 63.7664 11.9399 63.4637C11.9518 63.3251 11.9479 63.2393 11.9122 63.1851C11.7217 62.8959 10.7202 63.0013 10.4265 63.0224C10.0997 63.0465 10.0058 63.2016 9.96344 63.5541C9.91317 63.9502 9.91317 64.3508 9.91317 64.7515C9.90523 65.7275 9.78749 66.4339 10.6342 66.4339C10.7559 66.4429 11.0469 66.4791 11.334 66.455Z" fill="#FF9F6F"/>
<path d="M14.1748 66.455C14.4328 66.4339 14.663 66.4595 14.7953 66.2833C14.839 66.2261 14.8562 66.1327 14.8601 66.0212C14.8681 65.7637 14.839 65.5965 14.6776 65.5724C14.5082 65.5483 14.3111 65.6417 14.1497 65.6582C14.028 65.6748 13.7661 65.72 13.7012 65.6206C13.6576 65.5513 13.647 65.3645 13.6576 65.2169C13.6682 65.0859 13.6906 65.0573 13.7832 65.0618C13.9275 65.0693 14.1391 65.0859 14.2211 65C14.2966 64.881 14.2608 64.6943 14.2397 64.5015C14.1709 64.2243 13.7436 64.4653 13.7012 64.2891C13.6827 64.2243 13.6973 64.0602 13.7184 63.9125C13.7436 63.783 13.7727 63.7905 13.9447 63.7951C14.118 63.8026 14.2966 63.8403 14.4659 63.8357C14.6776 63.8237 14.7636 63.7664 14.7808 63.4637C14.7927 63.3251 14.7887 63.2393 14.753 63.1851C14.5625 62.8959 13.561 63.0013 13.2673 63.0224C12.9405 63.0465 12.8466 63.2016 12.8043 63.5541C12.754 63.9502 12.754 64.3508 12.754 64.7515C12.746 65.7275 12.6283 66.4339 13.475 66.4339C13.5967 66.4429 13.8878 66.4791 14.1748 66.455Z" fill="#FF9F6F"/>
<path d="M17.0436 66.3342C17.2553 66.2965 17.291 66.1128 17.2831 65.9004C17.2619 65.2422 17.2302 64.703 17.2765 64.0538C17.2804 64.0041 17.3122 63.968 17.3558 63.971C17.5278 63.9875 17.7461 63.98 17.8943 63.8942C18.0768 63.7872 18.0874 63.4529 18.0266 63.2601C17.9512 63.0281 17.5344 63.0432 16.82 63.0432C16.566 63.0477 16.0276 63.0311 15.7299 63.1004C15.5712 63.1381 15.554 63.2766 15.5354 63.4288C15.5182 63.5869 15.5103 63.8038 15.5963 63.8942C15.6968 64.0116 15.9985 64.0162 16.2498 64.0162C16.3001 64.0162 16.3398 64.0493 16.3358 64.1065C16.3147 64.4379 16.3186 64.6623 16.3252 65.0057C16.3292 65.3371 16.3067 65.8718 16.3795 66.1986C16.4258 66.4155 16.7777 66.3779 17.0436 66.3342Z" fill="#FF9F6F"/>
<path d="M26.3507 66.3624C27.0043 66.4076 27.7544 66.2118 28.0415 65.5325C28.4106 64.442 28.0415 63.6498 27.2623 63.2973C27.0188 63.1874 26.7701 63.1422 26.5082 63.1542C26.1285 63.1678 25.9062 63.2115 25.7872 63.5142C25.6191 63.9435 25.6363 64.7975 25.7197 65.778C25.7554 66.1952 25.8877 66.3308 26.3507 66.3624ZM26.5558 64.2538C26.577 63.939 26.6378 63.838 26.9103 63.939C27.0691 64.0052 27.2411 64.0941 27.3482 64.2538C27.7002 64.8382 27.3231 65.6635 26.7595 65.6349C26.6735 65.6319 26.6087 65.5656 26.5836 65.4467C26.5333 65.0626 26.5307 64.6378 26.5558 64.2538Z" fill="#FF9F6F"/>
<path d="M30.6224 66.4582C30.8486 66.4838 31.2905 66.1404 31.0788 65.8451C30.9201 65.6087 30.7309 65.3315 30.5443 65.1101C30.8129 64.9957 31.0497 64.8074 31.1211 64.461C31.3196 63.5045 30.7269 62.9487 29.4886 63.0587C29.2121 63.0828 29.0507 63.0994 28.9607 63.3901C28.8933 63.6069 28.9184 63.872 28.9184 64.833C28.9184 66.1524 28.8179 66.41 29.2478 66.4431C29.4886 66.4582 29.646 66.4145 29.7254 66.2142C29.7942 66.0425 29.7863 65.8497 29.7823 65.5017C30.0125 65.8903 30.4504 66.4386 30.6224 66.4582ZM29.7611 64.3661C29.7611 64.2154 29.7506 64.0633 29.7691 63.9172C29.7717 63.8766 29.8008 63.8555 29.8365 63.8555C30.0231 63.8555 30.4689 63.8766 30.5007 64.0513C30.5655 64.4158 30.289 64.461 29.822 64.473C29.7823 64.473 29.7611 64.4399 29.7611 64.3661Z" fill="#FF9F6F"/>
<path d="M32.2502 66.4453C32.491 66.4935 32.7384 66.4122 32.8178 66.2119C32.9064 65.995 32.8747 65.6109 32.8284 63.7236C32.8244 63.6047 32.839 63.4857 32.8204 63.3832C32.7927 63.2281 32.7027 63.1347 32.5942 63.0971C32.4156 63.0368 32.0915 63.0444 31.9632 63.1709C31.8732 63.2567 31.8798 63.4977 31.8838 63.8246C31.8878 64.1604 31.9169 64.5039 31.9195 64.8352C31.9089 65.6727 31.9129 66.0356 31.938 66.2028C31.9592 66.3504 32.0664 66.4077 32.2502 66.4453Z" fill="#FF9F6F"/>
<path d="M35.8857 66.2981C36.0432 66.1716 36.022 65.7589 36.0286 65.5254C36.0432 64.9742 36.0498 64.4229 36.0498 63.8746C36.0498 63.486 36.108 63.1261 35.727 63.0688C35.3976 63.0282 35.2176 63.0251 35.1488 63.2285C35.0523 63.4981 35.0959 63.9936 35.1065 64.2949C35.1065 64.3114 35.0853 64.3159 35.0774 64.3039C34.9266 63.968 34.5323 63.2285 34.3921 63.1426C34.2519 63.0568 34.0759 63.0779 33.8933 63.111C33.646 63.1547 33.6883 63.5312 33.6632 64.0991C33.638 64.4877 33.6235 64.8763 33.6208 65.2633C33.6168 65.5706 33.5163 66.143 33.7677 66.2815C33.9608 66.3885 34.2982 66.4035 34.4675 66.286C34.6077 66.1881 34.5575 65.9215 34.5575 65.7468C34.5575 65.4757 34.5575 65.2106 34.5681 64.941C34.5681 64.9244 34.5866 64.9214 34.5932 64.9335C34.7758 65.3492 34.9451 65.8733 35.2322 66.2077C35.3751 66.3674 35.7124 66.4367 35.8857 66.2981Z" fill="#FF9F6F"/>
<path d="M37.1467 66.4453C37.3875 66.4935 37.6349 66.4122 37.7143 66.2119C37.7672 66.0853 37.7778 65.9016 37.7672 65.3865C37.9789 65.525 38.1879 65.9212 38.3559 66.1787C38.4922 66.3881 38.4922 66.4363 38.6867 66.3504C38.8653 66.2736 39.1021 66.1019 39.0743 65.9543C39.0386 65.7871 38.5755 64.9647 38.3347 64.6876C38.553 64.3608 38.7938 63.8411 38.8983 63.5595C39.0346 63.1874 38.5676 62.9992 38.3599 63.0489C38.213 63.085 37.9577 63.7101 37.7354 64.1725L37.7249 63.7236C37.7209 63.6046 37.7354 63.4857 37.7169 63.3832C37.6891 63.2281 37.5992 63.1347 37.4907 63.0971C37.3121 63.0368 36.988 63.0443 36.8596 63.1709C36.7697 63.2567 36.7763 63.4977 36.7803 63.8246C36.7842 64.1604 36.8133 64.5038 36.816 64.8352C36.8054 65.6726 36.8094 66.0356 36.8345 66.2028C36.8557 66.3504 36.9628 66.4077 37.1467 66.4453Z" fill="#FF9F6F"/>
<mask id="mask1_247_244" style="mask-type:luminance" maskUnits="userSpaceOnUse" x="19" y="62" width="6" height="6">
<path d="M19.5215 62.291H24.2339V67.5341H19.5215V62.291Z" fill="white"/>
</mask>
<g mask="url(#mask1_247_244)">
<mask id="mask2_247_244" style="mask-type:luminance" maskUnits="userSpaceOnUse" x="19" y="62" width="6" height="6">
<path d="M23.1029 62.4086C22.4057 62.3017 22.0155 62.9132 21.8488 63.7205C21.6821 62.9162 21.2944 62.3017 20.5946 62.4086C19.8895 62.5141 19.4661 63.5338 19.6725 64.4932C19.8193 65.168 20.5509 66.6922 21.8488 67.5222C23.1492 66.6922 23.8782 65.171 24.025 64.4932C24.2341 63.5338 23.812 62.5141 23.1029 62.4086Z" fill="white"/>
</mask>
<g mask="url(#mask2_247_244)">
<path d="M19.6201 62.3926H24.0785V67.5151H19.6201V62.3926Z" fill="#F8909F"/>
</g>
</g>
</svg>
