<svg width="81" height="78" viewBox="0 0 81 78" fill="none" xmlns="http://www.w3.org/2000/svg">
<path d="M80.6554 74.674C78.1063 74.2661 75.7042 73.689 73.1561 73.2811C71.5518 74.8452 69.9813 75.9752 68.0711 77.2735C57.9237 76.2371 47.9858 74.6712 38.119 72.6273C36.7551 73.8312 35.3988 75.0229 34.0227 76.252C25.3542 76.2483 16.0963 76.2053 7.43808 75.8629C7.01901 75.4672 6.33241 75.0163 5.94608 74.5982C4.32406 72.8406 2.7011 71.0838 1.07908 69.3262C0.631953 59.6679 0.815296 51.5232 0.368164 41.865C2.03321 40.3001 3.87319 38.6182 5.31654 36.9026C13.4454 36.9943 21.576 36.9307 29.702 36.7183C29.876 24.3586 29.847 14.2074 29.847 14.2074C29.847 14.2074 37.3762 5.4949 39.4819 0.466074C47.8511 1.03668 56.0641 0.96933 64.4239 0.316406C68.3312 5.03935 73.0457 9.88577 77.2757 14.4067C79.5955 34.5921 76.7612 54.6616 80.6554 74.674Z" fill="#ECEADA"/>
<mask id="mask0_265_138" style="mask-type:luminance" maskUnits="userSpaceOnUse" x="0" y="0" width="81" height="78">
<path d="M0 0H81V77.5876H0V0Z" fill="white"/>
</mask>
<g mask="url(#mask0_265_138)">
<path d="M80.5828 72.6131C80.537 72.3521 80.5005 72.0892 80.4734 71.8254C80.3723 70.9723 80.3256 70.1108 80.2685 69.253C80.2386 68.79 80.1675 68.3307 80.0562 67.8798C79.9879 67.5927 79.9121 67.3074 79.8485 67.0192L79.6652 66.154L79.3789 63.402L79.2236 61.3693C79.204 61.1046 79.1928 60.8399 79.1918 60.5742C79.1787 59.7136 79.2002 58.8512 79.2152 57.9896C79.2236 57.5247 79.1909 57.0608 79.1189 56.6015C79.0216 56.0187 78.9402 55.4341 78.8607 54.8485L78.7672 52.0796L78.7279 50.0404C78.7222 49.7748 78.7269 49.5091 78.74 49.2434C78.7802 48.3819 78.8364 47.5204 78.8869 46.6589C78.9149 46.194 78.9028 45.7281 78.8495 45.2651L78.6521 43.5018L78.6371 40.7292L78.6278 38.6863C78.6259 38.4206 78.6343 38.155 78.6521 37.8893L78.813 35.3019C78.841 34.8361 78.8289 34.3693 78.7765 33.9063L78.6287 32.6753L78.6558 32.5733L78.6147 32.5621L78.5642 32.1421L78.5118 29.3667L78.4472 27.3228C78.4388 27.0571 78.4398 26.7905 78.45 26.5239C78.4903 25.6596 78.4959 24.7953 78.5165 23.9291C78.5258 23.4623 78.4949 22.9946 78.4229 22.5334C78.3378 21.9469 78.2265 21.3632 78.1236 20.7795L77.9187 18.0078L77.7148 15.9714C77.6886 15.7067 77.6718 15.4401 77.6634 15.1745L77.6437 14.5159C77.6372 14.428 77.6353 14.3354 77.625 14.2428L77.4445 14.0332L77.2349 13.7769L76.4155 12.7723C76.1208 12.4112 75.7944 12.0763 75.4408 11.7723L74.0947 10.6152L72.1949 8.5947L70.8039 7.10177C70.6234 6.90627 70.4503 6.70515 70.2838 6.49749L68.6786 4.46856C68.3933 4.10187 68.0762 3.76138 67.7329 3.44708L66.4327 2.24506L65.5309 1.19552L64.5478 0.0234375L63.285 0.11698L62.1672 0.193684C61.8762 0.212393 61.5844 0.221747 61.2935 0.222682C60.3459 0.21707 59.3993 0.208651 58.4535 0.189942C57.9428 0.182459 57.4321 0.205845 56.926 0.275066L54.9972 0.519211C53.9832 0.543532 52.9682 0.558499 51.9542 0.566917C51.2078 0.566917 50.4604 0.573465 49.7139 0.565046C49.422 0.563176 49.1302 0.551951 48.8402 0.530436C47.8954 0.456538 46.9525 0.377962 46.0106 0.290033C45.5017 0.244197 44.991 0.230166 44.4812 0.26197L42.5392 0.362995L41.0201 0.279743L39.3083 0.171234L38.9098 1.02995C38.8116 1.25632 38.6946 1.47615 38.5749 1.69504C38.4832 1.86715 38.3822 2.03366 38.2746 2.19642C38.1006 2.45927 37.9033 2.71184 37.7199 2.96908C37.5356 3.22632 37.3458 3.47982 37.1474 3.72771C36.9351 3.99711 36.763 4.29176 36.6143 4.60139L36.039 5.78189C35.6452 6.3394 35.256 6.89972 34.8482 7.44788C34.5535 7.85478 34.2514 8.25702 33.9474 8.65738C33.8286 8.81453 33.7042 8.96607 33.5695 9.11012C33.1326 9.5769 32.6967 10.0437 32.2524 10.5039C32.0157 10.7537 31.8062 11.0268 31.6294 11.3233L30.9503 12.4524L30.2955 13.2409L29.5659 14.1025L29.5677 16.2305C29.5668 16.4943 29.5574 16.7581 29.5387 17.021L29.3526 19.5822C29.3189 20.0424 29.3255 20.5054 29.3722 20.9647L29.55 22.7158L29.5341 25.465L29.52 27.4893C29.5172 27.7521 29.506 28.0159 29.4854 28.2788L29.2815 30.839C29.245 31.2992 29.2459 31.7623 29.2899 32.2216L29.4545 33.9736L29.4517 34.1934C29.2974 34.2271 29.1421 34.2552 28.9878 34.2926C28.4836 34.4245 27.9775 34.5498 27.4761 34.7014C26.4285 35.0082 25.4201 35.5086 24.5651 36.2009C24.4762 36.2691 24.3911 36.3402 24.3079 36.4141C24.2115 36.4104 24.1161 36.4104 24.0197 36.4067C22.2022 36.3337 20.3819 36.3646 18.5681 36.4927L17.5859 36.5619L14.3699 36.5788C13.4981 36.5797 12.6263 36.5573 11.7564 36.5058C9.94072 36.4001 8.11946 36.3936 6.3038 36.489L5.81177 36.5142L5.56669 36.5273L5.15136 36.5385L4.74446 37.0128L4.44325 37.3514C4.24026 37.5759 4.03354 37.7986 3.824 38.0174C3.48351 38.3757 3.11682 38.7087 2.73049 39.0193C1.92323 39.6685 1.16928 40.3794 0.48829 41.1717L0.304947 41.3859C0.285304 41.4112 0.214212 41.4851 0.162763 41.5412L0 41.7142L0.105703 44.2773C0.129088 44.9265 0.128153 45.5766 0.0972838 46.2267C0.0364813 47.5831 0.071092 48.9404 0.212341 50.292L0.28811 51.0235L0.329268 53.4229C0.339558 54.074 0.323656 54.725 0.284368 55.3751C0.201115 56.7324 0.225437 58.0925 0.362008 59.447L0.436842 60.1794L0.487354 62.5816C0.505127 63.2336 0.492967 63.8847 0.464904 64.5366C0.401296 65.8967 0.451808 67.2597 0.625797 68.6104L0.671632 68.9762L0.695018 69.1614L0.724016 69.4729L2.43771 71.3297C2.87829 71.8067 3.30017 72.3006 3.70333 72.8095C4.12334 73.3418 4.56486 73.8562 5.02508 74.352L5.37493 74.7206L5.55266 74.902C5.61159 74.9628 5.6911 75.0405 5.76032 75.1003C6.04656 75.3482 6.33467 75.5381 6.6153 75.7243L6.91276 75.9235L7.05495 76.0236L7.29348 76.2182L10.9108 76.3435C11.8565 76.3725 12.8003 76.423 13.7432 76.4951C15.7104 76.6466 17.6879 76.6775 19.6579 76.5914L20.7243 76.5446L24.2115 76.5783C25.1572 76.5858 26.102 76.6167 27.0449 76.6709C29.014 76.7841 30.9896 76.7832 32.9586 76.6728L33.4909 76.6419L33.7565 76.627L33.9343 76.6195L34.1606 76.612L35.836 75.1284C36.2616 74.7514 36.7041 74.3922 37.1624 74.0536C37.6161 73.7169 38.0529 73.3605 38.4757 72.9872L40.0267 73.3015C40.2577 73.3474 40.486 73.4035 40.7123 73.468L42.9246 74.0817C43.3222 74.1921 43.7309 74.2575 44.1435 74.2856L45.7131 74.3876L48.1302 74.815L49.9122 75.1153C50.1451 75.1537 50.3752 75.2032 50.6035 75.2594L52.8345 75.7991C53.2367 75.8964 53.6473 75.9478 54.0599 75.9619L55.6332 76.0105L58.0625 76.3557L59.8548 76.5952C60.0877 76.626 60.3197 76.6672 60.5498 76.7158L62.7986 77.1779C63.2036 77.2612 63.6152 77.2977 64.0286 77.2977L65.602 77.292L68.1445 77.5633L69.1922 76.844C69.3175 76.757 69.4466 76.6765 69.5822 76.6045C70.02 76.3679 70.4559 76.1246 70.889 75.8711C71.1229 75.7346 71.3315 75.5615 71.5101 75.3557C71.7375 75.0947 71.9592 74.8291 72.1762 74.5616C72.3773 74.3876 72.5765 74.2098 72.773 74.0302C72.8871 73.9255 73.0321 73.7898 73.1322 73.6935L73.1686 73.7225L73.2753 73.585L73.7851 73.671L74.4577 73.7898C74.6326 73.8216 74.8056 73.8637 74.9768 73.9142L76.6419 74.425C76.9421 74.5176 77.2508 74.5709 77.5661 74.584L78.769 74.628L79.6876 74.7954L81 75.0152L80.5828 72.6131ZM53.4453 74.9554C51.9945 74.6233 50.524 74.3932 49.0423 74.2538L48.2397 74.1808L45.6504 73.7225C44.9489 73.5925 44.2529 73.4381 43.5626 73.2594C42.992 73.1079 42.4167 72.9779 41.8395 72.8581C41.7899 72.8198 41.7404 72.7833 41.6899 72.7487C41.6216 72.7057 41.557 72.657 41.4953 72.6056C41.2932 72.4409 41.0865 72.2941 40.8976 72.1425C40.7947 72.0612 40.6861 72.0041 40.5692 71.9648C40.4167 71.9162 40.283 71.8535 40.1539 71.7731C40.1221 71.7366 40.0987 71.6964 40.0697 71.658C40.0632 71.6458 40.0557 71.6458 40.0491 71.6234L40.0314 71.5598L40.008 71.4793L40.037 71.4475L40.0922 71.3895L40.1848 71.2969L40.3775 71.1052L40.3765 69.7516C40.4037 69.7544 40.4317 69.7554 40.4588 69.7582C40.457 69.6908 40.456 69.6235 40.4551 69.5552C40.4532 69.4448 40.4514 69.3335 40.4514 69.2231C40.4514 68.7264 40.4663 68.2297 40.4981 67.733C40.5309 67.226 40.5468 66.718 40.5458 66.2092L40.544 64.3346L40.5262 64.082L40.5028 63.7621C40.4579 63.1382 40.4411 62.5133 40.4467 61.8885C40.4504 61.4526 40.4626 61.0176 40.4906 60.5826C40.5234 60.0747 40.5393 59.5667 40.5393 59.0588L40.5374 57.1833L40.4953 56.6108C40.4935 56.5828 40.4925 56.5547 40.4906 56.5266C40.4205 55.4958 40.4167 54.4622 40.4832 53.4313C40.5159 52.9243 40.5318 52.4164 40.5318 51.9075V51.6849L40.5299 50.0526V50.0329L40.9584 50.032L40.9602 51.7784L41.0856 52.8897C41.1183 53.1816 41.1239 53.4753 41.1024 53.7681L40.9827 55.3957C40.9705 55.5622 40.9649 55.7296 40.9649 55.8971L40.9658 57.1833L40.9677 58.9297L41.0921 60.041C41.1249 60.3329 41.1305 60.6266 41.109 60.9194L40.9902 62.547C40.978 62.7135 40.9715 62.8809 40.9724 63.0484L40.9733 64.3346L40.9752 66.0801L41.0996 67.1914C41.1323 67.4832 41.138 67.7769 41.1164 68.0697L41.0313 69.2381L41.0061 69.5767L40.9976 69.6974C40.9948 69.7357 40.9948 69.7741 40.993 69.8134L42.2043 69.9415C42.5027 69.9714 42.8039 69.9742 43.1023 69.9518C43.4812 69.9228 43.86 69.8966 44.2398 69.8742C44.8319 69.9022 45.4222 69.949 46.005 70.0229C46.4324 70.0697 46.8618 70.1726 47.2996 70.2315C47.4689 70.2577 47.6373 70.2904 47.8038 70.3297L49.4286 70.7123C49.7214 70.7815 50.0188 70.8236 50.3191 70.8395L51.4613 70.8994L53.2255 71.1875L54.5238 71.3998C54.6931 71.427 54.8615 71.4606 55.028 71.5009L56.6519 71.8891C56.9447 71.9592 57.2422 72.0022 57.5424 72.0181L58.6846 72.0799L60.4497 72.3671L61.749 72.5775C61.9174 72.6047 62.0858 72.6383 62.2532 72.6776L63.8799 73.0593C64.1718 73.1275 64.4702 73.1687 64.7704 73.1827L65.9154 73.2351C66.5047 73.324 67.094 73.4119 67.6871 73.4924L68.2577 73.5635L68.4205 73.5794C68.4756 73.584 68.5299 73.5868 68.5842 73.5878C68.297 74.5952 68.0772 75.6204 67.9209 76.6569L67.8854 76.8889L65.4935 76.6326C64.7854 76.5512 64.0801 76.4446 63.3795 76.3136C61.9174 76.032 60.4404 75.8534 58.9549 75.7645L58.1505 75.7187L55.5472 75.3482C54.8419 75.2416 54.1412 75.1106 53.4453 74.9554ZM36.8266 73.1116C36.56 73.3043 36.3187 73.5288 36.1063 73.7814L35.2991 74.7449L33.9165 75.9684L31.6331 75.9666C31.3226 75.9656 31.0111 75.9563 30.7005 75.9376L27.6763 75.7467C27.1328 75.7121 26.5865 75.7168 26.044 75.7626L23.9767 75.9338L20.7317 75.9011L18.3427 75.8674C18.0321 75.8627 17.7206 75.8487 17.411 75.8253L14.3915 75.583C13.8489 75.5391 13.3036 75.5316 12.7601 75.5671L10.6909 75.6934L7.55072 75.584L7.46934 75.511L7.30658 75.3744L6.98105 75.1153C6.76497 74.9469 6.55263 74.7804 6.36086 74.6074C6.2851 74.54 6.21775 74.4699 6.15507 74.3969C6.08585 74.3155 6.0185 74.2323 5.95302 74.1472L4.67711 72.4971C4.44699 72.2005 4.18695 71.9302 3.8979 71.6898L2.79878 70.7722L1.35636 69.21L1.29088 67.6684C1.28059 67.4552 1.28433 67.2409 1.29462 67.0267L1.405 64.9398C1.42652 64.5656 1.40594 64.1896 1.34794 63.8182L1.12718 62.4011L1.08041 60.1673L1.05141 58.5219C1.04767 58.3077 1.05328 58.0935 1.06825 57.8792L1.21792 55.7933C1.24505 55.4182 1.23101 55.0412 1.1777 54.6689L0.970032 53.248L0.93168 51.0114L0.898004 49.3641C0.893327 49.1499 0.898005 48.9357 0.9111 48.7205L1.03738 46.6308C1.05796 46.2548 1.03925 45.8778 0.978451 45.5055L0.742724 44.0874L0.65573 41.9818L1.48077 41.2072C1.60051 41.095 1.72679 40.9893 1.85868 40.8901C2.28804 40.5683 2.71646 40.2437 3.14302 39.9135C3.37219 39.7349 3.57424 39.5253 3.74356 39.2859C3.9587 38.9837 4.17011 38.6769 4.37777 38.3701C4.57515 38.1606 4.77065 37.9492 4.96428 37.7359L5.25052 37.4122L5.44509 37.1849L7.52079 37.2046C7.80796 37.2064 8.09514 37.2177 8.38231 37.2382L11.1755 37.4319C11.6787 37.4646 12.1839 37.4581 12.6843 37.4094L14.5926 37.2214L17.5906 37.2055L19.7982 37.1849C20.0854 37.1821 20.3735 37.1877 20.6597 37.2027L23.2621 37.3337C23.0703 37.5217 22.8832 37.7144 22.7074 37.9164C22.3566 38.3093 22.0404 38.7312 21.7336 39.1643C21.3847 39.6629 21.1097 40.2222 20.9226 40.8106C20.7617 40.7975 20.6008 40.7882 20.439 40.7882C19.9965 40.7854 19.5512 40.79 19.1079 40.8041C18.4147 40.7638 17.715 40.7536 17.0153 40.8087L17.0303 40.9958L17.049 41.2362C17.7721 41.1801 18.5026 41.1941 19.2341 41.2418C19.7439 41.2736 20.2537 41.3373 20.7626 41.413C20.7037 41.7021 20.6663 41.9958 20.655 42.2905C20.6438 42.4906 20.6569 42.6936 20.656 42.8929L20.8973 42.8966L21.0853 42.8994C21.105 42.4803 21.1358 42.0603 21.235 41.6506C21.2444 41.5954 21.2612 41.543 21.2762 41.4907C22.4314 41.6628 23.6222 41.7741 24.8158 41.6488C25.0459 41.63 25.276 41.5889 25.5043 41.5599L25.4799 41.3195L25.4603 41.1333C24.9636 41.1782 24.4631 41.1997 23.9618 41.1913C23.7653 41.1885 23.5698 41.1726 23.3752 41.1539C22.7485 41.0838 22.1255 40.9837 21.4988 40.8808C21.669 40.4916 21.8692 40.1193 22.0975 39.7657C22.1788 39.6488 22.2537 39.5282 22.3229 39.4047C22.3977 39.284 22.4707 39.1615 22.5352 39.0333C22.6185 38.8724 22.7176 38.719 22.8084 38.56C22.9066 38.4056 23.0114 38.255 23.1133 38.1007C23.3509 37.8378 23.6035 37.59 23.8682 37.3542C24.234 37.3552 24.6006 37.3346 24.9645 37.2934L26.869 37.0689L29.4143 37.0072L29.6978 37.0006L29.8661 36.9969L30.0757 36.9904L32.0728 36.9352C32.1027 36.9342 32.1317 36.9342 32.1607 36.9333C32.3356 36.9296 32.5115 36.9296 32.6864 36.9324C32.6939 36.9324 32.7014 36.9324 32.7089 36.9324C32.7846 36.9342 32.8595 36.9342 32.9352 36.937L34.3103 36.9829C34.3225 36.9885 34.3346 36.9866 34.3421 36.9988L34.3543 37.0128C34.3524 37.0147 34.3945 37.0427 34.4123 37.0558L34.692 37.2588L35.2457 37.6723C35.6405 37.9735 36.0539 38.2476 36.4796 38.5001C36.7527 38.6601 37.023 38.8256 37.2915 38.995L37.2279 41.3026C37.2148 41.9696 37.1877 42.6366 37.139 43.3016C37.0408 44.6898 37.0792 46.0845 37.1175 47.4755L37.1063 47.8955L37.0969 48.2266V48.2276L37.0698 48.917L36.9997 50.6868C36.9791 51.3537 36.9407 52.0198 36.8865 52.6849C36.7705 54.0711 36.7901 55.4668 36.8126 56.8578L36.7826 57.6098L36.6535 60.0681C36.6255 60.7342 36.5787 61.4002 36.5151 62.0634C36.3832 63.4487 36.3851 64.8444 36.3888 66.2354L36.3505 66.9874L36.5759 66.9987L36.7789 67.0099L36.8388 65.3215C36.85 65.1016 36.8668 64.8827 36.8902 64.6639L37.1128 62.5348C37.1521 62.1513 37.1643 61.765 37.1493 61.3815L37.0895 59.9175L37.2111 57.6267L37.2494 55.9382C37.2578 55.7184 37.2719 55.4986 37.2924 55.2797L37.4889 53.1479C37.5244 52.7644 37.531 52.378 37.5113 51.9945L37.4337 50.5306L37.5263 48.2388V48.1845L37.5319 47.6794L37.5347 47.3997L37.5441 46.5504C37.5487 46.3305 37.5609 46.1107 37.5787 45.8918L37.748 43.7572C37.7779 43.3737 37.7817 42.9873 37.7555 42.6029L37.6601 41.1408L37.7124 39.2709C37.834 39.3514 37.9575 39.429 38.0782 39.5113C38.457 39.8294 38.8284 40.1549 39.1876 40.4935C39.3663 40.6638 39.5468 40.8331 39.7199 41.0089L39.9799 41.2718L40.1558 41.4542L40.0893 43.1071C40.08 43.3381 40.0632 43.5692 40.036 43.7993L39.7807 46.0396C39.7722 46.1154 39.7666 46.1912 39.761 46.2679C39.7563 46.3305 39.7526 46.3941 39.7498 46.4578C39.747 46.5382 39.7442 46.6196 39.7442 46.701C39.7442 46.8852 39.7507 47.0695 39.7685 47.2529L39.9135 48.7926L39.8611 51.2031L39.8284 52.9776C39.8246 53.2087 39.8115 53.4397 39.79 53.6698L39.5777 55.9139C39.5393 56.318 39.5449 56.724 39.5889 57.1272L39.7601 58.6631L39.7442 61.0737L39.7367 62.8491C39.7367 63.0793 39.7264 63.3103 39.7068 63.5414L39.5215 65.7873C39.4888 66.1914 39.4963 66.5974 39.5449 66.9996L39.7311 68.5337L39.732 69.2137V69.7039L39.7339 70.8161L38.7508 71.687C38.6104 71.8114 38.4636 71.9293 38.3111 72.0387L38.0352 72.2389L37.6385 72.5251L37.3299 72.7478L36.8266 73.1116ZM25.4266 36.1999C25.566 36.1092 25.7185 36.04 25.8672 35.9679C26.3602 35.7481 26.8616 35.5526 27.376 35.4001C27.6511 35.3131 27.9233 35.214 28.187 35.0952C28.5229 34.9446 28.8671 34.8061 29.2169 34.6808C29.2927 34.6612 29.3694 34.6453 29.4461 34.6284L29.4237 36.3636L26.6343 36.431C26.1095 36.4422 25.5856 36.4403 25.0609 36.4319C25.1815 36.3533 25.3041 36.2766 25.4266 36.1999ZM30.1945 22.5156C30.1973 21.7149 30.2263 20.9151 30.2787 20.1163C30.3872 18.4484 30.3862 16.775 30.2721 15.1071L30.2525 14.8246C30.6706 14.8162 31.0869 14.7984 31.5022 14.7704C31.9718 14.7376 32.4413 14.7133 32.9119 14.6974C33.8941 14.6647 34.8734 14.5365 35.8313 14.2802C36.0044 14.2353 36.1765 14.1829 36.3486 14.1315L36.2523 13.7143C35.8743 13.8003 35.4889 13.8686 35.1026 13.9313C34.9511 13.9556 34.7995 13.9743 34.6461 13.9827C34.1494 14.0145 33.6518 14.037 33.1551 14.0501C32.8866 14.0576 32.6209 14.0912 32.3581 14.1464C32.0251 14.2194 31.6902 14.2867 31.3544 14.3504C30.9765 14.3747 30.5986 14.3896 30.2225 14.3971C30.2207 14.384 30.2188 14.3831 30.2169 14.3737L30.2094 14.3391L30.838 13.5955L31.5433 12.7433C31.925 12.2803 32.3188 11.8285 32.7332 11.3916C33.5938 10.4786 34.3571 9.47868 35.0166 8.40949L35.3673 7.82766C35.8079 7.2346 36.2298 6.62751 36.6545 6.02323C36.9884 5.52091 37.357 5.04571 37.7162 4.56023C38.4898 3.56494 39.1315 2.45553 39.5824 1.25539L39.6946 0.939215C39.6946 0.915829 39.6983 0.882154 39.7068 0.840996L41.0949 0.928925L42.7328 1.01592C43.6206 1.05801 44.5073 1.11975 45.3932 1.19833C47.2416 1.36203 49.1049 1.38728 50.9571 1.27316L51.9589 1.21049C53.0515 1.20113 54.145 1.1843 55.2385 1.15623C56.1271 1.13285 57.0158 1.12817 57.9044 1.14127C59.3132 1.16185 60.7229 1.10104 62.1241 0.964471L63.2008 2.24506C63.574 2.67723 63.9332 3.11968 64.2803 3.57149C65.0034 4.51627 65.8349 5.37311 66.6675 6.22341L67.0875 6.70983L68.442 8.32062C68.8143 8.75279 69.1744 9.19524 69.5205 9.64799C70.2445 10.5928 71.0761 11.4487 71.9086 12.299L72.3286 12.7863L72.3371 12.7788C72.4587 12.9201 72.6776 13.0351 72.7907 12.9772C72.7992 12.9725 72.8076 12.9697 72.8151 12.9641C72.9189 12.8743 72.7917 12.6498 72.6617 12.4992L72.4989 12.6385L72.6532 12.5057L71.6907 11.4309C71.5681 11.2887 71.4503 11.1419 71.3371 10.9922L70.2361 9.53106C70.0387 9.26821 69.8189 9.02126 69.5804 8.79488L68.6721 7.93055L67.413 6.43014L66.4505 5.35534C66.3279 5.21315 66.2101 5.06629 66.0969 4.91663L64.9959 3.45456C64.7976 3.19171 64.5777 2.94569 64.3401 2.71932L63.4319 1.85499L62.6349 0.90554C62.909 0.874671 63.184 0.846608 63.458 0.810127L63.9557 0.742777L64.1952 0.710037L64.2663 0.689457L65.1072 1.68942L66.081 2.82222C66.6114 3.43305 67.1286 4.0551 67.631 4.68932C68.6796 6.01481 69.8292 7.25612 71.0593 8.41043L71.7253 9.03435L73.7664 11.2055C74.3211 11.7929 74.8561 12.3972 75.3725 13.0174C75.6419 13.341 75.916 13.66 76.1957 13.9752L76.6175 14.4448L76.7438 14.5833L76.365 15.9546C76.2219 16.4401 76.1087 16.933 75.9543 17.4157C75.6297 18.4222 75.4389 19.4662 75.3023 20.512C75.2762 20.7009 75.2612 20.8908 75.2415 21.0798L74.9291 22.9179C74.8571 23.4183 74.7692 23.916 74.6653 24.4099C74.5512 24.9262 74.4708 25.4473 74.4109 25.9711C74.351 26.4949 74.3014 27.0206 74.2846 27.5473L74.2678 28.1179C74.2079 28.7353 74.1359 29.3526 74.0863 29.971C74.0433 30.4733 73.9834 30.9747 73.9067 31.4732C73.7552 32.5162 73.6775 33.5686 73.6822 34.6209L73.685 35.1906L73.5634 37.0465C73.5316 37.5488 73.483 38.0511 73.4184 38.5506C73.2828 39.5936 73.222 40.645 73.2257 41.6955L73.2285 42.2643L73.0957 44.1164C73.0583 44.6187 73.0078 45.1192 72.9301 45.6168C72.8506 46.136 72.7898 46.657 72.7477 47.1799C72.7009 47.7028 72.6654 48.2257 72.6514 48.7505L72.6364 49.3183L72.4306 51.1629C72.3782 51.6044 72.3081 52.0432 72.2286 52.48C71.8506 52.4108 71.4671 52.3939 71.0911 52.3911C70.4774 52.3387 69.8647 52.3771 69.2633 52.4734C68.8199 52.5473 68.3849 52.6559 67.9593 52.7915C67.7937 52.8467 67.6253 52.8944 67.4588 52.9458C66.9144 53.1049 66.3812 53.3041 65.8611 53.5333C65.5796 53.6549 65.3149 53.813 65.0707 53.9935C64.7601 54.2246 64.4589 54.465 64.1615 54.7072C63.6601 55.0346 63.169 55.3742 62.6779 55.7119L61.5938 56.4527C61.4516 56.5463 61.3056 56.6361 61.1569 56.7175C60.6733 56.984 60.1869 57.2338 59.6995 57.3386C59.4376 57.3938 59.1907 57.4331 58.9381 57.4377C58.6154 57.4471 58.2749 57.3582 57.9522 57.1955C57.476 56.8905 57.0719 56.4611 56.6631 56.0309C56.361 55.7109 56.0523 55.3948 55.7333 55.0879C55.6099 54.9673 55.4854 54.8466 55.3676 54.7194C54.9785 54.3125 54.565 53.9205 54.1169 53.5604C53.8756 53.3658 53.6053 53.2049 53.319 53.0824C52.9561 52.9253 52.5782 52.8018 52.1993 52.7054C51.624 52.4912 51.0235 52.3696 50.4286 52.2789C49.9898 52.2125 49.5521 52.1638 49.118 52.1096C48.9487 52.089 48.7813 52.06 48.6148 52.0244C48.0769 51.9075 47.5493 51.7672 47.0582 51.5689C46.7926 51.4641 46.5279 51.3622 46.2566 51.2696C45.9123 51.1526 45.5737 51.0039 45.2473 50.8271C44.7711 50.4978 44.339 50.104 43.9657 49.6616C43.6898 49.337 43.4531 48.9806 43.2202 48.6102C43.1285 48.4661 43.0415 48.3174 42.9583 48.1658C42.6861 47.6757 42.3849 47.1715 41.9303 46.7487C41.6861 46.5232 41.3774 46.3492 41.0444 46.2716C40.9368 46.2454 40.8283 46.2276 40.7198 46.2155C40.8433 44.8647 40.8807 43.5084 40.833 42.152L40.818 41.7563L40.8115 41.543L40.8096 41.2054L40.4224 40.8031L40.1343 40.5131C39.9416 40.3214 39.746 40.1324 39.5459 39.9482C39.1483 39.5777 38.7386 39.2185 38.3186 38.8743C37.6357 38.314 36.9426 37.7668 36.2438 37.227C35.88 36.9445 35.5048 36.6779 35.1232 36.4188L34.8267 36.2242L34.6845 36.1335C34.6349 36.1101 34.5938 36.054 34.5339 36.0708L34.2336 36.0774L33.5517 36.0961C33.0634 36.1139 32.5742 36.1391 32.0859 36.17C31.9933 36.0877 31.8923 36.0035 31.7866 35.9118L31.6444 35.7883C31.6229 35.7696 31.591 35.7434 31.578 35.7294L31.5359 35.6864C31.4797 35.6293 31.4292 35.5723 31.3843 35.5143C31.2936 35.3983 31.2318 35.2823 31.2085 35.1719C31.1907 35.0943 31.1926 34.9811 31.1954 34.8688C31.2057 34.7276 31.2936 34.5573 31.4498 34.4273C31.5733 34.359 31.7127 34.3132 31.8567 34.2851C31.9035 34.2823 31.9502 34.2786 31.997 34.2758C32.0073 34.2786 32.0167 34.2832 32.027 34.2851C32.1411 34.3197 32.2683 34.3179 32.3862 34.3281L32.3936 34.2571C32.4984 34.2561 32.6041 34.258 32.7098 34.2645C33.2505 34.2945 33.7902 34.3506 34.3206 34.4338C34.6059 34.4797 34.8921 34.5077 35.1803 34.5199C35.546 34.5349 35.9108 34.5695 36.2738 34.6284C36.5507 34.7051 36.8229 34.7959 37.0876 34.9044C37.2213 34.9558 37.3495 35.0194 37.4767 35.084C37.603 35.1494 37.7349 35.2074 37.8574 35.2795C38.0342 35.3927 38.2194 35.4946 38.3897 35.6181C38.5534 35.7491 38.7321 35.8632 38.8855 36.0072C39.0052 36.1185 39.1268 36.2299 39.2344 36.3533C39.5767 36.763 39.8761 37.2018 40.1296 37.6657C40.2007 37.7892 40.2633 37.9183 40.34 38.038L40.572 38.4C40.7788 38.7003 40.9658 39.0183 41.1436 39.3439C41.3662 39.8789 41.5421 40.4336 41.7067 40.9921C41.8255 41.4046 41.9331 41.8199 42.0303 42.239C42.0696 42.4027 42.1014 42.5673 42.1267 42.7357C42.209 43.2792 42.2979 43.8236 42.4017 44.369C42.4569 44.6636 42.5458 44.9527 42.6655 45.2286C42.817 45.5794 42.9779 45.9264 43.1547 46.2641C43.3727 46.8179 43.615 47.366 43.9246 47.8805C44.1444 48.264 44.4026 48.6251 44.6785 48.9712C44.7898 49.1041 44.9049 49.2341 45.0115 49.3716C45.3745 49.8019 45.7795 50.2125 46.2454 50.5484C46.4848 50.7401 46.7776 50.8926 47.0779 50.9861C47.4605 51.1021 47.8496 51.1741 48.2397 51.2022C48.539 51.2574 48.8449 51.2883 49.1526 51.2799C49.4604 51.2761 49.771 51.2378 50.0722 51.1442C50.5156 51.017 50.943 50.7598 51.2321 50.3734C51.3453 50.2238 51.4388 50.0619 51.5174 49.8945C51.7746 49.3435 51.827 48.7664 51.9131 48.2285C51.9589 47.9329 51.9739 47.6336 51.9533 47.3352C51.9346 46.9563 51.9047 46.5784 51.87 46.2014C51.8794 45.9068 51.8766 45.6112 51.8757 45.3165C51.8775 45.0209 51.871 44.7254 51.8607 44.4307C51.8523 43.9957 51.8233 43.5617 51.7999 43.1277C51.7915 42.9583 51.7802 42.789 51.7802 42.6188C51.7802 42.0659 51.7587 41.514 51.7325 40.9603C51.7138 40.6628 51.6727 40.3654 51.595 40.0772C51.4921 39.7115 51.4014 39.3448 51.2873 38.9828C51.1834 38.4019 51.0609 37.8238 50.9299 37.2485C50.8289 36.8257 50.7279 36.4029 50.6119 35.9838C50.567 35.8201 50.5315 35.6536 50.4959 35.4881L50.3191 34.678L50.1236 33.8717C50.0525 33.5798 49.9562 33.3085 49.8374 33.0391C49.6886 32.6977 49.5465 32.3535 49.4099 32.0055C49.2612 31.4414 49.1283 30.8727 49.0123 30.3002C48.9291 29.8783 48.8514 29.4555 48.7832 29.0309C48.757 28.8643 48.7354 28.6978 48.7233 28.5295C48.6812 27.9841 48.6494 27.4378 48.6176 26.8906C48.6007 26.596 48.5577 26.3022 48.4876 26.0141L48.2182 24.9169C48.1723 24.6231 48.1583 24.3425 48.1312 24.0563C48.119 23.771 48.1246 23.4829 48.1358 23.1966L48.1938 22.5634L48.2967 21.9338C48.3257 21.7701 48.3744 21.6102 48.4211 21.4502C48.5774 20.9329 48.7729 20.4278 48.9787 19.9273C49.0862 19.657 49.1863 19.381 49.2509 19.0948C49.3425 18.7328 49.4323 18.3699 49.5334 18.0078L50.1835 16.3699C50.3416 15.9668 50.5006 15.5636 50.6484 15.1539C50.7054 14.9939 50.7709 14.8368 50.8383 14.6806C51.0534 14.1698 51.262 13.6544 51.4323 13.1175C51.5277 12.8275 51.5801 12.5263 51.5997 12.2251C51.6222 11.8425 51.6381 11.4618 51.6353 11.082C51.7045 10.4936 51.741 9.90336 51.7737 9.31404C51.7933 8.88001 51.8102 8.44597 51.8177 8.01194C51.8223 7.84262 51.8308 7.67331 51.8448 7.504C51.8916 6.95491 51.9318 6.40582 51.9664 5.85672C51.9683 5.83802 51.9664 5.81837 51.9673 5.79966C52.0328 5.81744 52.0974 5.83708 52.1619 5.85298C52.3864 5.91004 52.6174 5.9353 52.8504 5.92782C53.146 5.91846 53.4416 5.89788 53.7362 5.8586C53.8513 5.86047 53.9673 5.85673 54.0842 5.85111C54.1459 5.8455 54.1946 5.84363 54.2675 5.83521C54.3508 5.82118 54.4378 5.81463 54.5173 5.79499C54.6557 5.76225 54.7876 5.72109 54.8924 5.66309C55.0963 5.64719 55.3012 5.63129 55.5042 5.60603L56.129 5.52372L56.1103 5.28331L56.0953 5.09623C55.7446 5.12242 55.3928 5.14206 55.0421 5.15703C54.941 5.11026 54.8428 5.06255 54.7446 5.01391L54.5706 4.91663L54.4237 4.8315L54.2067 4.70054C54.0926 4.63132 53.9804 4.55836 53.8681 4.47978C53.5042 4.23658 53.0936 3.97466 52.5464 3.94098L52.4369 3.93911L52.3443 3.94472C52.2835 3.94847 52.2236 3.95595 52.1638 3.96624C52.0487 3.98401 51.9355 4.01114 51.8261 4.04575L51.8008 3.84838L51.784 2.08885H51.3556L51.3743 3.98495C51.3752 4.05697 51.3733 4.129 51.3743 4.20103C51.2349 4.25154 51.0974 4.30393 50.9608 4.35818L50.5829 4.45359L50.103 4.58175L49.2041 4.82121C48.9347 4.77818 48.6644 4.73235 48.3959 4.68184L48.3164 5.10278C48.9899 5.23093 49.669 5.33382 50.35 5.41334C50.5315 5.43485 50.7129 5.45636 50.8944 5.47788C50.9084 5.48256 50.9206 5.4863 50.9356 5.49191C51.0703 5.53681 51.2059 5.57797 51.3415 5.62006C51.2891 6.65464 51.292 7.68641 51.3284 8.71724L51.3453 9.29253C51.3107 9.91832 51.2704 10.5432 51.1947 11.1624C51.1367 11.6666 51.0403 12.1643 50.9075 12.6479C50.6166 13.6478 50.2658 14.6422 49.9552 15.6618L49.7841 16.2128L49.0853 17.9732C48.8991 18.4531 48.7018 18.9292 48.5016 19.4072C48.0863 20.4035 47.7776 21.4726 47.7205 22.5755L47.7074 23.1714C47.6934 23.3323 47.7009 23.496 47.6962 23.6578C47.6971 23.8206 47.6878 23.9824 47.7084 24.1451L47.7505 24.6325C47.7654 24.7943 47.7907 24.9459 47.8103 25.103C47.8786 25.611 47.9272 26.1217 47.9609 26.6334C48.0292 27.7016 48.1751 28.7727 48.4417 29.8203L48.5914 30.3853C48.7177 31.0083 48.8636 31.6285 49.0301 32.2422C49.1639 32.7426 49.2976 33.2431 49.4314 33.7416C49.7027 34.7762 50.0095 35.7846 50.3378 36.7967L50.5118 37.3458C50.6521 37.9557 50.7784 38.5703 50.8888 39.1867C50.9748 39.689 51.0441 40.1942 51.074 40.703C51.146 41.7629 51.2508 42.8162 51.3705 43.8713C51.3967 44.0612 51.4108 44.252 51.4313 44.4429C51.4435 44.7562 51.4491 45.0696 51.4472 45.383C51.451 45.6963 51.4472 46.0097 51.4379 46.3231C51.4304 46.8319 51.3836 47.3408 51.3219 47.845C51.2414 48.3669 51.2124 48.917 51.1067 49.38C51.0048 49.8468 50.785 50.2256 50.4014 50.4932C50.3331 50.5409 50.2649 50.5914 50.1863 50.626C50.1105 50.6671 50.0329 50.7055 49.9487 50.7336C49.3977 50.9001 48.7794 50.8757 48.1938 50.7579C47.7149 50.6606 47.2547 50.466 46.8553 50.2051C46.0115 49.6232 45.2632 48.9319 44.628 48.1153C44.5167 47.9666 44.3942 47.8235 44.2941 47.6635C43.9798 47.1369 43.7272 46.57 43.5093 45.99C43.3278 45.5195 43.1949 45.0294 43.0883 44.5345C42.8647 43.5 42.6571 42.4598 42.3128 41.4261C42.2539 41.2409 42.1838 41.0576 42.1192 40.8733C41.9405 40.2615 41.7394 39.6526 41.4925 39.0595C41.2839 38.5806 41.08 38.0979 40.8321 37.6302C40.3419 36.6424 39.5571 35.7696 38.6011 35.1897L38.0698 34.9062C37.9285 34.8249 37.7789 34.7584 37.6339 34.6836C37.4889 34.6078 37.3392 34.5414 37.1877 34.4816C36.8846 34.3609 36.574 34.2617 36.2607 34.1794C35.7499 34.0466 35.2354 33.9409 34.7182 33.852C33.8239 33.6986 32.9128 33.678 32.0139 33.7716C31.969 33.7491 31.9241 33.7248 31.8792 33.6986C31.8146 33.6509 31.7473 33.6079 31.6939 33.5443C31.5125 33.3506 31.3628 33.1271 31.2347 32.8913C31.1645 32.7641 31.0775 32.6509 30.9737 32.5452C30.839 32.4133 30.7127 32.2683 30.5901 32.1196C30.4872 31.9148 30.3993 31.7024 30.3245 31.4882L30.3179 31.3694L30.2805 31.3675C30.274 31.346 30.2646 31.3245 30.2581 31.3021L30.2066 31.317C30.3217 29.6707 30.3329 28.0187 30.2328 26.3715L30.1776 25.4688L30.1945 22.5156ZM78.0095 43.7104C78.0113 44.5186 77.9964 45.3259 77.9543 46.1322C77.9122 46.975 77.8916 47.8179 77.9075 48.6607C77.9271 49.5044 77.973 50.3472 78.045 51.1872L78.1245 52.0965L78.2237 55.0777C78.2442 55.8859 78.2695 56.6941 78.2611 57.5032C78.2573 58.3479 78.2648 59.1935 78.3275 60.0363C78.3939 60.8782 78.4875 61.7192 78.6072 62.5554L78.7382 63.459L79.0468 66.4299C79.1189 67.2363 79.2208 68.0398 79.277 68.848C79.3462 69.6908 79.4173 70.5355 79.5613 71.3699C79.7091 72.2034 79.8831 73.0321 80.0833 73.8534L80.1011 73.9255C79.9897 73.8244 79.8812 73.7225 79.7783 73.6177C79.6567 73.4942 79.5473 73.3614 79.4547 73.2202C79.3088 72.9985 79.1787 72.7328 79.0375 72.4802L78.6212 71.7169C78.4818 71.4616 78.321 71.2193 78.1432 70.9901L78.1498 70.9602L78.1152 70.9527C78.1114 70.9471 78.1077 70.9415 78.103 70.9359L77.3612 70.0042C77.3013 69.9078 77.2377 69.8077 77.1713 69.7086L77.495 70.0322C77.5586 69.8798 77.6213 69.7348 77.6774 69.5823C77.7073 69.5093 77.7298 69.4261 77.755 69.3475C77.7672 69.3073 77.7775 69.2661 77.7868 69.224L77.8074 69.1305C77.8532 68.9023 77.8776 68.6703 77.8748 68.4383C77.8738 68.2568 77.8645 68.0753 77.8467 67.8948C77.8149 67.5973 77.756 67.3195 77.6708 67.0323C77.5857 66.747 77.4594 66.4711 77.3434 66.2223C77.2209 65.9688 77.0984 65.7153 76.9768 65.4636C76.8252 65.1428 76.7055 64.7911 76.6119 64.4291C76.5857 64.2859 76.5736 64.1391 76.5549 63.9941C76.5362 63.8257 76.509 63.6929 76.4875 63.546C76.4454 63.257 76.4155 62.9651 76.3968 62.6723C76.3687 62.2402 76.3575 61.8061 76.3584 61.3702C76.3575 61.2 76.3669 61.0288 76.3809 60.8595C76.4267 60.3057 76.48 59.751 76.5137 59.1879C76.5334 58.8848 76.5193 58.5771 76.4679 58.2749C76.408 57.8905 76.321 57.5088 76.2237 57.1337C76.1339 56.5369 75.9646 55.927 75.6831 55.3779C75.4735 54.9757 75.2266 54.5875 74.916 54.2545C74.8047 54.1151 74.6728 53.9972 74.5559 53.8616C74.1565 53.4425 73.6869 53.0852 73.1705 52.8018C73.0639 52.7391 72.9507 52.6905 72.8347 52.6465C72.8506 52.4968 72.86 52.3462 72.8618 52.1956L72.8712 51.0862L73.063 49.3641L73.1892 48.0938C73.2061 47.9282 73.2285 47.7636 73.2575 47.5999L73.5176 46.0013C73.5643 45.7132 73.584 45.4213 73.5756 45.1304L73.5335 44.021L73.6569 42.2933L73.7411 41.0211C73.7524 40.8555 73.7701 40.6899 73.7926 40.5253L74.0143 38.9229C74.0545 38.6348 74.0676 38.3439 74.0536 38.053L73.9993 36.9464L74.1125 35.2196L74.1985 33.9484C74.2116 33.7828 74.2294 33.6182 74.2547 33.4545L74.4867 31.9129L75.2088 32.1037C75.5306 32.1888 75.8477 32.2899 76.1601 32.4077C76.7326 32.6219 77.3229 32.78 77.9253 32.8867C77.9262 33.5162 77.914 34.1467 77.8804 34.7753C77.7952 36.4562 77.8093 38.1419 77.9281 39.8228L77.9936 40.732L78.0095 43.7104ZM71.7805 57.8119C71.657 57.7717 71.5878 57.5341 71.6121 57.362C71.6355 57.1861 71.7468 57.1449 71.8768 57.159C71.8815 57.1599 71.8862 57.159 71.8909 57.1599C71.9573 57.1683 72.0106 57.2235 72.0461 57.2993C72.0826 57.3779 72.0985 57.4789 72.0864 57.5724C72.0733 57.6688 72.0312 57.7361 71.9751 57.7764C71.9255 57.8128 71.8656 57.8287 71.8011 57.8194C71.7936 57.8184 71.787 57.8147 71.7805 57.8119ZM74.7486 27.6315H74.7495C74.7486 27.6324 74.7486 27.6324 74.7486 27.6333C74.7486 27.6324 74.7486 27.6324 74.7486 27.6315ZM77.8953 30.7857L77.4183 30.6716C77.3303 30.6491 77.2433 30.6201 77.1592 30.5855C76.8841 30.4723 76.6119 30.3554 76.3416 30.2347C76.1957 30.1693 76.0423 30.129 75.8814 30.1141L75.2705 30.0495C75.0236 29.9681 74.7776 29.883 74.5334 29.796C74.5615 29.4733 74.5933 29.1515 74.627 28.8307L75.4445 29.0561C75.7036 29.1272 75.9581 29.2151 76.2078 29.318C76.7298 29.5341 77.2733 29.68 77.8327 29.7567L77.8757 29.7624L77.8953 30.7857ZM77.5913 29.203C77.5062 29.1796 77.423 29.1497 77.3406 29.1141L76.5446 28.7699C76.4015 28.7072 76.2509 28.6717 76.0937 28.6623L75.495 28.6249L74.8805 28.4556C74.9955 28.1637 75.1143 27.8737 75.2369 27.5856C75.3398 27.6165 75.4427 27.6492 75.5456 27.6792C75.7841 27.7475 76.0189 27.8288 76.249 27.9242C76.7317 28.1226 77.2396 28.2404 77.7606 28.275H77.7625C77.7681 28.3424 77.7719 28.4097 77.7784 28.4761L77.8579 29.2769L77.5913 29.203ZM77.7213 27.7849L77.524 27.7428C77.4454 27.725 77.3687 27.7007 77.2929 27.6707C77.0478 27.5725 76.8046 27.4706 76.5633 27.3667C76.4333 27.3106 76.2958 27.2797 76.1517 27.2751L75.6045 27.2498C75.5409 27.2311 75.4773 27.2105 75.4127 27.1918C75.4595 27.088 75.5025 26.9823 75.5521 26.8803C75.6924 26.5782 75.8524 26.2854 76.0282 26.0076C76.2247 26.073 76.4164 26.1479 76.6063 26.2358C76.9347 26.3874 77.2826 26.4874 77.64 26.5351C77.6605 26.9523 77.6877 27.3686 77.7213 27.7849ZM77.5399 25.972C77.3285 25.8785 77.1199 25.7812 76.9141 25.6802C76.8028 25.6269 76.684 25.5979 76.5577 25.5932L76.3192 25.582C76.6222 25.1788 76.9347 24.8149 77.3154 24.5483C77.3911 24.4922 77.4725 24.4417 77.5679 24.3687C77.5745 24.9 77.5876 25.4304 77.611 25.9608C77.6119 25.973 77.6128 25.9842 77.6128 25.9963C77.5885 25.9879 77.5633 25.9823 77.5399 25.972ZM72.4119 55.1862C72.396 55.3003 72.3595 55.3845 72.3127 55.4443C72.2566 55.5164 72.1865 55.551 72.1116 55.5407C72.1107 55.5407 72.1098 55.5398 72.1098 55.5398C71.9751 55.5173 71.9105 55.1712 71.9451 54.9205C71.9788 54.6679 72.0995 54.609 72.236 54.6277C72.3165 54.6389 72.3735 54.7428 72.4016 54.8775C72.4203 54.972 72.4259 55.0814 72.4119 55.1862ZM72.2482 56.3872C72.2379 56.4574 72.2042 56.5079 72.1584 56.5407C72.1069 56.5762 72.0415 56.5902 71.9694 56.5809C71.9676 56.5809 71.9657 56.579 71.9629 56.579C71.8712 56.5622 71.8048 56.4574 71.7786 56.3461C71.7683 56.2974 71.7636 56.2479 71.7693 56.2039C71.7898 56.0589 71.904 56.0299 72.0387 56.0477C72.0396 56.0477 72.0415 56.0468 72.0424 56.0477C72.1144 56.057 72.1734 56.1113 72.2098 56.1805C72.2416 56.2432 72.2576 56.318 72.2482 56.3872ZM76.4249 69.4102C76.4585 69.4541 76.4922 69.499 76.524 69.5421C76.625 69.673 76.7204 69.8012 76.8065 69.9322L77.074 70.3503C77.147 70.4653 77.2172 70.5823 77.2892 70.6983L76.9066 70.528C76.8018 70.4812 76.6914 70.4607 76.5745 70.4672L76.1321 70.4906L75.8486 70.4242C76.061 70.1248 76.2583 69.8049 76.408 69.4541C76.4146 69.4401 76.4183 69.4242 76.4249 69.4102ZM75.5643 70.7983L76.0825 70.919C76.2724 70.9639 76.4585 71.0238 76.64 71.1005C76.9739 71.2408 77.3219 71.3231 77.6811 71.3549C77.756 71.4849 77.8336 71.615 77.9066 71.7459C77.9833 71.8853 78.0646 72.0219 78.1451 72.1594C78.0487 72.1295 77.9552 72.0958 77.8617 72.0602C77.5427 71.9349 77.2162 71.8329 76.8935 71.7366C76.7195 71.6851 76.5408 71.6617 76.3612 71.6646C76.133 71.6692 75.9076 71.6702 75.6821 71.6664C75.4445 71.6178 75.2125 71.556 74.9843 71.4859C75.1854 71.2633 75.3781 71.035 75.5643 70.7983ZM74.6728 71.8395C75.0039 71.9517 75.3398 72.0368 75.6737 72.1033C75.9833 72.1641 76.2892 72.2295 76.5876 72.3119C77.2059 72.4849 77.8327 72.5934 78.3902 72.7506C78.4379 72.7655 78.4837 72.7824 78.5286 72.8011C78.6109 72.9349 78.6923 73.0696 78.7765 73.2014C78.8354 73.2959 78.9028 73.3904 78.9729 73.483L78.7325 73.4203C78.5941 73.3857 78.4575 73.3455 78.3228 73.2987L77.0029 72.8553C76.7644 72.7768 76.5193 72.7263 76.2696 72.7019L75.3183 72.6168L74.2154 72.3848C74.3641 72.1987 74.5166 72.0172 74.6728 71.8395ZM77.842 32.3581C77.7363 32.3301 77.6325 32.2955 77.5296 32.2562L76.5315 31.8661C76.3519 31.796 76.1648 31.752 75.9721 31.7342L75.2378 31.6678L74.5372 31.4826C74.5512 31.3189 74.5578 31.1543 74.5531 30.9896L74.5344 30.2497C74.757 30.3273 74.9796 30.4059 75.2041 30.4789C75.4698 30.5659 75.7317 30.6641 75.9908 30.7754C76.5306 31.0083 77.1002 31.158 77.6849 31.2207L77.9038 31.2422L77.9243 32.3563C77.9243 32.3647 77.9243 32.3722 77.9243 32.3797L77.842 32.3581ZM68.5327 76.0695C68.5692 75.9067 68.6113 75.7467 68.6599 75.5877L69.1211 74.0358C69.2043 73.7561 69.2586 73.4699 69.2867 73.1799L69.3942 72.0752L69.7422 70.3793L69.992 69.1277C70.0247 68.9649 70.063 68.804 70.107 68.6431L70.1444 68.5066L70.2398 67.8565L70.2679 67.6647L70.2988 67.4552L70.3044 67.4205L70.3128 67.3607L70.3306 67.2438L70.3521 67.0941L70.4232 66.6095L70.4859 65.5394L70.5158 65.0174C70.5401 64.5993 70.5916 64.1821 70.6701 63.7696L70.7487 63.3543L71.1042 61.4787C71.1491 61.243 71.1874 61.0073 71.2202 60.7697L71.4419 58.9428L71.6037 58.9643L71.4316 58.9409C71.4652 58.6912 71.5579 58.3825 71.6926 58.3956C71.6935 58.3956 71.6944 58.3947 71.6954 58.3947C71.7047 58.3965 71.7122 58.4021 71.7206 58.4059C71.8385 58.4611 71.889 58.7642 71.8563 58.9989L71.6439 58.9699L71.8675 59.0008L71.7562 59.8137C71.744 59.9634 71.73 60.113 71.7169 60.2636C71.5971 61.6247 71.4634 62.9876 71.2174 64.3318C71.0864 65.0464 70.9723 65.7639 70.8731 66.4851L70.7562 67.2877L70.7412 67.3897L70.715 67.5665L70.7122 67.5852L70.6879 67.7545L70.6776 67.8228C71.0144 67.9491 71.3539 68.065 71.7 68.1586C72.1247 68.2755 72.5522 68.3812 72.9788 68.486C73.7832 68.6834 74.6017 68.7582 75.4127 68.7769C75.5493 68.8003 75.6859 68.8227 75.8224 68.8536C75.9235 68.8892 76.0208 68.9322 76.118 68.9752C76.0049 69.2297 75.8645 69.4747 75.7074 69.7123C75.6344 69.8227 75.554 69.9284 75.4651 70.0285C75.1807 70.3522 74.8749 70.6711 74.5746 70.992C74.4128 71.165 74.2715 71.3559 74.1518 71.5617L73.6981 72.3446L73.2528 72.9161L73.0368 72.8937L72.6018 73.3109L72.295 73.5953C72.0892 73.7833 71.8796 73.9676 71.6682 74.15C71.3231 74.4456 70.9536 74.7122 70.5654 74.9498C69.8217 75.4072 69.1127 75.9123 68.441 76.481L68.5327 76.0695ZM73.9179 72.7599L75.3332 73.0593C75.7551 73.1509 76.1714 73.2623 76.5829 73.3923C77.4417 73.6626 78.3153 73.8731 79.2031 74.0256L79.5407 74.0845C79.5548 74.0976 79.5679 74.1107 79.5828 74.1228L78.7531 73.9704C78.2227 73.8693 77.697 73.7393 77.176 73.5859C76.09 73.2641 74.9712 73.0434 73.8309 72.9639L73.7636 72.9592L73.9179 72.7599ZM29.2946 55.8793L29.3395 55.811L29.4255 55.6735C29.506 55.5472 29.5818 55.4172 29.6566 55.2881C29.7043 55.2039 29.7529 55.1188 29.8007 55.0346C29.8933 54.8663 29.9849 54.6969 30.085 54.5314C30.3984 53.9888 30.6762 53.422 30.9166 52.8373C31.0466 52.523 31.1402 52.1919 31.1926 51.8551C31.2636 51.4295 31.3076 51.0002 31.3394 50.5727C31.4489 49.872 31.5031 49.3987 31.5302 48.2238L31.0223 48.5419C30.9559 48.584 30.8895 48.6186 30.8175 48.6494L30.6416 48.7252L30.5209 48.7664L30.2805 48.8468C30.1935 48.8758 30.1215 48.9282 30.0635 49.003C29.999 49.09 29.9082 49.1939 29.8989 49.2462C29.8979 49.2491 29.8951 49.2537 29.8951 49.2556L29.6949 49.3828C29.6968 49.2977 29.6949 49.2116 29.7006 49.1265L29.7052 49.0255C29.7071 48.9778 29.7099 48.931 29.7137 48.8842L29.7361 48.6036C29.7492 48.4567 29.7745 48.3118 29.8025 48.1686C29.8156 48.1097 29.8334 48.0526 29.8465 47.9937C29.8474 47.989 29.8493 47.9844 29.8502 47.9797C29.9447 47.5793 30.056 47.1846 30.1907 46.8001C30.2749 46.5597 30.3404 46.3146 30.389 46.0639C30.448 45.745 30.5247 45.4288 30.6107 45.1126C30.7108 44.8778 30.8184 44.6458 30.9306 44.4167L31.0232 44.2389C31.0691 44.1501 31.1187 44.0603 31.1682 43.9705L31.4592 43.4457L30.7875 43.4775L30.6191 43.485C30.5649 43.4878 30.4985 43.4906 30.4704 43.4943L30.2525 43.5121C30.1617 43.5187 30.071 43.5289 29.9812 43.5374C29.8493 43.5505 29.7183 43.5645 29.5864 43.5804C29.5182 43.5888 29.4489 43.5972 29.3797 43.6057C29.2974 43.6159 29.216 43.6272 29.1337 43.6384C28.9896 43.658 28.8447 43.6767 28.6987 43.6917C27.9625 43.7815 27.2282 43.9209 26.5042 44.107C26.1142 44.2062 25.7325 44.3465 25.3714 44.5252C24.9112 44.7478 24.4659 44.9966 24.031 45.2567L23.5034 45.5336L22.9852 45.8282L22.6737 46.02L22.4539 46.1668L22.5259 45.9648C22.5352 45.9386 22.5558 45.8974 22.5895 45.8413L22.9085 45.3006C22.9655 45.2043 22.9702 45.1715 22.9253 45.2024L22.7541 45.3175L22.8514 45.0434C22.5062 45.252 22.1302 45.4718 21.8262 45.6655L21.5877 45.8151L21.4679 45.8899L21.38 45.9489L21.0442 46.1753C20.8711 46.2941 20.6981 46.4138 20.5185 46.5251C19.9441 46.8974 19.3866 47.2978 18.8469 47.7243C18.556 47.9544 18.2866 48.2135 18.0471 48.497C17.7412 48.8534 17.4522 49.2238 17.1706 49.597C16.9283 49.8711 16.6926 50.1517 16.4625 50.4361L16.1285 50.8636L15.9807 51.0628C15.9574 51.0245 15.9349 50.9852 15.9153 50.945C15.9068 50.9291 15.9031 50.9057 15.9059 50.8823C15.9087 50.8627 15.9125 50.8449 15.9171 50.8308C15.9199 50.8112 15.933 50.8178 15.9284 50.7775C15.9265 50.7149 15.9255 50.6541 15.9274 50.5933C15.9293 50.5278 15.9078 50.4707 15.8619 50.4174C15.8067 50.3837 15.73 50.1957 15.6777 50.0975C15.6571 49.8945 15.6449 49.6691 15.6346 49.467L15.6066 49.4735L15.195 49.8056L14.9892 49.9712L14.8143 50.1199C14.6375 50.2677 14.4672 50.423 14.296 50.5783C14.1632 50.6999 14.0313 50.8215 13.8919 50.9366C13.4467 51.3173 13.0201 51.7223 12.6123 52.1489C12.3925 52.378 12.1979 52.6325 12.0361 52.9056C11.8275 53.2517 11.6357 53.6053 11.4524 53.9617C11.284 54.2255 11.1212 54.493 10.965 54.7643L10.8256 55.0169L10.7302 55.2021L10.6657 55.0084C10.6647 55.0056 10.6657 55.001 10.6647 54.9981C10.6647 54.9953 10.6638 54.9935 10.6638 54.9916C10.6582 54.9692 10.6535 54.9448 10.6554 54.9196C10.6573 54.8934 10.661 54.8719 10.6657 54.8541C10.6685 54.8298 10.6563 54.7643 10.6526 54.7203L10.6189 54.4285C10.6077 54.3237 10.5693 54.2274 10.5057 54.1394L10.385 53.9729C10.3448 53.9168 10.3083 53.8719 10.2522 53.769L9.9482 52.871C9.77609 53.118 9.60116 53.363 9.43466 53.6128C9.33831 53.7587 9.29247 53.8233 9.24103 53.9103L9.08481 54.1628C9.00436 54.2947 8.92298 54.4257 8.83412 54.5538C8.56939 54.9458 8.32431 55.3545 8.09701 55.7736L8.01188 55.7512C7.97447 55.8924 7.93986 56.0355 7.90337 56.1777C7.84538 56.3208 7.7958 56.4677 7.76025 56.6174C7.67607 56.9551 7.61059 57.2965 7.55353 57.637L7.44315 58.0457C7.42818 58.114 7.41041 58.1814 7.39731 58.2506C7.37673 58.346 7.36177 58.4424 7.34586 58.5387L7.34399 58.5256C7.33557 58.4714 7.32248 58.418 7.30751 58.3657C7.30096 58.3432 7.29348 58.3049 7.2888 58.2581C7.28225 58.2048 7.27945 58.1589 7.27758 58.1196C7.27477 58.0486 7.28038 58.0018 7.29629 57.9765C7.30283 57.9662 7.30751 57.9662 7.3047 57.9653C7.28132 57.926 7.24764 57.8867 7.21116 57.8531C7.06898 57.6894 6.93428 57.5593 6.82483 57.4723C6.67236 57.2544 6.52082 57.0523 6.35806 56.8353L6.34309 56.8269C6.34029 56.8344 6.33841 56.8484 6.33654 56.8587L6.32438 56.9251L6.29913 57.0589L6.24955 57.3255L6.15601 57.8587L6.11578 58.115L6.08959 58.2908L6.04095 58.6444C6.01569 58.8278 5.99044 59.0111 5.95676 59.1935C5.85293 59.7875 5.76781 60.3852 5.70233 60.9858C5.66678 61.3104 5.66398 61.6387 5.69484 61.9633C5.73133 62.3758 5.78277 62.7865 5.8389 63.1952C5.86603 63.8398 5.92028 64.4833 6.00821 65.1241C6.07463 65.5955 6.15227 66.067 6.26171 66.5319C6.29913 66.7143 6.34403 66.8958 6.37864 67.0791C6.50024 67.675 6.66394 68.2671 6.89405 68.8452C7.01472 69.1576 7.18778 69.4532 7.39731 69.7179C7.66858 70.05 7.9595 70.3662 8.29719 70.6272C8.50485 70.8358 8.73964 71.0144 8.98192 71.1819L8.89492 71.3671L9.26909 71.5766L9.36076 71.4148C9.55065 71.5196 9.73867 71.6159 9.9295 71.7216C10.3514 71.9396 10.7732 72.1575 11.2073 72.3512C11.3766 72.4269 11.5403 72.5158 11.7087 72.5944C12.2475 72.8656 12.7984 73.1219 13.3681 73.3399C13.5225 73.3988 13.6787 73.4503 13.8377 73.4961C13.9967 73.5391 14.1604 73.5653 14.3232 73.5896C14.7348 73.6589 15.1557 73.6795 15.5682 73.7122C16.2137 73.7917 16.8647 73.8506 17.5167 73.8188C17.7562 73.8095 17.9966 73.8067 18.2342 73.7702C18.4727 73.7365 18.714 73.7262 18.9479 73.672C19.1322 73.6345 19.3174 73.6027 19.5035 73.5775C19.8057 73.5298 20.1003 73.4484 20.4015 73.3848C20.6971 73.3025 20.9871 73.2014 21.2827 73.1098C21.5914 72.9891 21.8879 72.8329 22.1685 72.658C22.5193 72.4185 22.8477 72.1538 23.1573 71.875C23.6811 71.4878 24.1685 71.0584 24.6334 70.6113C24.9767 70.2829 25.3088 69.9452 25.638 69.6066C25.7662 69.4747 25.899 69.3466 26.0356 69.224L27.3695 68.0248C27.6099 67.8087 27.8307 67.573 28.0308 67.3205L28.3807 66.8799L28.7895 66.3645L28.7941 66.3579L29.2113 65.9286L30.4536 64.6508L30.4583 64.6386L29.6828 64.6741C29.5977 64.6779 29.5182 64.6723 29.4358 64.6657L29.4405 64.6395C29.4078 64.6339 29.376 64.6292 29.3432 64.6227C29.1926 64.5937 29.042 64.5666 28.8914 64.5423C28.7296 64.5161 28.5678 64.4936 28.405 64.4721C28.2581 64.4534 28.1113 64.4365 27.9635 64.4216C27.9813 64.4076 28.0009 64.3954 28.0196 64.3814L28.1141 64.3121C28.1571 64.2813 28.2011 64.2523 28.2469 64.2242C28.3171 64.1784 28.3854 64.1297 28.4546 64.082C28.6173 63.9707 28.7764 63.8547 28.9335 63.7331C28.985 63.6929 29.0373 63.6555 29.0879 63.6143C29.2347 63.4965 29.3591 63.3543 29.4564 63.1924C29.4583 63.1887 29.4602 63.1859 29.463 63.1822C29.5855 62.981 29.6978 62.7752 29.8044 62.5685C29.8923 62.4572 30.0813 62.1831 30.2225 61.9642L30.6435 61.2786L30.6472 61.2243C30.4096 61.3076 30.1365 61.3974 29.8867 61.4769C29.7707 61.5115 29.6688 61.5265 29.5556 61.5442L29.5238 61.547L29.4181 61.5555C29.3666 61.5583 29.3563 61.5555 29.3227 61.5555L29.158 61.547C29.1178 61.5442 29.0785 61.5377 29.0383 61.5339C28.97 61.5274 28.9017 61.5218 28.8334 61.5115C28.8035 61.5077 28.7745 61.5087 28.7446 61.5077C28.6594 61.504 28.5752 61.5077 28.4892 61.5283C28.3414 61.5657 28.1908 61.5919 28.0374 61.6134L27.8877 61.5901L27.8073 61.5732C27.753 61.5611 27.7006 61.547 27.6473 61.5311L27.7446 61.4264L27.8643 61.2917C28.0084 61.1308 28.1459 60.9652 28.2834 60.8006C28.39 60.6705 28.4985 60.5415 28.6127 60.418C28.68 60.3422 28.7446 60.2636 28.811 60.1879C28.912 60.0709 29.014 59.9559 29.1122 59.8371C29.2441 59.6771 29.3713 59.5144 29.4976 59.3497C29.55 59.2814 29.6051 59.216 29.6575 59.1467C29.8362 58.9091 29.9868 58.6519 30.1056 58.3797C30.2581 58.0355 30.3965 57.6856 30.5275 57.3348L30.7183 56.9401L30.9138 56.5079C31.0859 56.1001 31.2524 55.6894 31.4143 55.2769C31.4124 55.2479 31.4068 55.2273 31.4068 55.1908L30.9456 55.5014C30.8511 55.5641 30.7688 55.608 30.679 55.6539L30.477 55.7287C30.4059 55.753 30.3357 55.7661 30.259 55.7886L30.1963 55.8054L30.1655 55.8064L30.1047 55.8101C30.0644 55.8138 30.0233 55.812 29.9831 55.8129C29.8961 55.8129 29.8166 55.8354 29.738 55.8793C29.7006 55.9018 29.6622 55.9214 29.6239 55.9401C29.6098 55.9476 29.5977 55.9542 29.5846 55.9616C29.5574 55.9757 29.5312 55.986 29.5041 55.9981C29.4733 56.0103 29.4751 56.0215 29.4555 56.0318C29.3891 56.0346 29.3236 56.0271 29.2572 56.0187C29.2394 56.0168 29.2207 56.0187 29.2029 56.0159L29.26 55.9308L29.2946 55.8793ZM29.5995 56.4555C29.7398 56.4499 29.8792 56.4452 30.0195 56.4396C30.1159 56.4368 30.2113 56.4247 30.3039 56.4041L30.3741 56.3872L30.3918 56.3826C30.3974 56.3816 30.3825 56.3863 30.3881 56.3854V56.3863C30.389 56.3882 30.389 56.3891 30.389 56.3891C30.389 56.3891 30.3956 56.3657 30.4779 56.2815L30.4938 56.2656L30.5845 56.1768C30.5509 56.2619 30.5181 56.3442 30.4798 56.4303C30.3572 56.7015 30.2244 56.985 30.086 57.2563C29.9232 57.5799 29.7352 57.8895 29.5378 58.1926C29.463 58.3067 29.3919 58.4227 29.3124 58.5331C29.2609 58.6061 29.2085 58.6772 29.1561 58.7492C29.0561 58.8886 28.955 59.027 28.8549 59.1655C28.3994 59.7931 27.941 60.4161 27.4658 61.0344C27.2367 61.3066 27.058 61.5405 26.8718 61.7706C27.0833 61.8305 27.289 61.8913 27.4976 61.9446C27.6052 61.968 27.7147 61.9942 27.8222 62.0138C27.9046 62.026 27.9625 62.0372 28.0346 62.0456L28.6912 62.1307L28.709 62.1335C28.8082 62.1466 28.9092 62.1504 29.0102 62.1513C29.1487 62.1532 29.2871 62.1457 29.4246 62.1242C29.5097 62.1092 29.4751 62.113 29.4835 62.1092C29.4854 62.1064 29.4873 62.1017 29.4929 62.0961C29.4966 62.0914 29.5041 62.0858 29.5116 62.0802C29.5247 62.0681 29.5434 62.0531 29.5761 62.0316L29.6547 61.9829L29.708 61.9521C29.679 62.0007 29.6491 62.0484 29.6182 62.0952L29.5696 62.1644L29.5069 62.2486L29.4153 62.3721C29.2834 62.5451 29.1337 62.7042 28.9765 62.8548C28.9139 62.9156 28.8521 62.9792 28.7857 63.0362L28.5603 63.2317L28.0683 63.6583L27.6969 63.9838C27.5313 64.1129 27.3704 64.2382 27.2133 64.3598C27.1684 64.357 27.1235 64.3533 27.0786 64.3505C26.4341 64.3206 25.7886 64.3084 25.1413 64.3149C23.7924 64.3393 22.4351 64.5872 21.1742 65.0708C20.946 65.1531 20.7215 65.2476 20.4979 65.3439C19.7486 65.6105 19.0349 65.965 18.3277 66.2503C17.7496 66.4814 17.1519 66.6404 16.5616 66.6189C15.9433 66.6058 15.3147 66.4617 14.659 66.3448C14.0042 66.2316 13.3026 66.1222 12.587 66.2522C12.4579 66.2728 12.3307 66.3046 12.2063 66.3429L12.7208 65.4346C12.9303 65.0689 13.1436 64.7059 13.3616 64.3458C13.4457 64.2055 13.5384 64.0689 13.6347 63.9361C13.949 63.5049 14.2717 63.0821 14.6047 62.6695C14.7843 62.4469 14.9462 62.2121 15.0893 61.9642C15.2708 61.6509 15.4588 61.3394 15.6571 61.0335C15.7282 60.9465 15.803 60.8614 15.875 60.7744L15.8919 60.8052C16.4784 60.4966 17.093 60.2412 17.7262 60.0457C18.2407 59.8867 18.772 59.7838 19.3062 59.7389C20.4212 59.6463 21.5325 59.6706 22.6419 59.81C22.8421 59.8324 23.0441 59.867 23.2499 59.8988C23.582 59.9737 23.9243 60.0485 24.2826 60.0803C24.6381 60.1121 25.0188 60.0953 25.3733 59.9961C25.9533 59.8427 26.4715 59.5462 26.9364 59.1973C27.4237 58.8315 27.8297 58.3722 28.1683 57.8858C28.4724 57.449 28.7259 56.9887 28.9532 56.5229C28.9663 56.4958 28.9803 56.4686 28.9934 56.4415C29.0748 56.4499 29.1571 56.4565 29.2422 56.4602C29.3142 56.463 29.3872 56.464 29.4639 56.4611C29.5088 56.4593 29.5546 56.4574 29.5995 56.4555ZM29.4134 65.1054L29.2806 65.242L28.8269 65.7087L28.3882 66.1605C28.376 66.1736 28.3629 66.1849 28.3507 66.1979C27.9728 66.5852 27.5846 66.9622 27.1843 67.3279C26.3228 68.1118 25.5127 68.9603 24.7531 69.8358L24.3369 70.3016C23.8458 70.7731 23.336 71.2193 22.7906 71.6112C22.5698 71.7721 22.3369 71.9143 22.1003 72.0462C21.8655 72.179 21.6092 72.2791 21.3603 72.3867C20.3089 72.8151 19.2295 73.1285 18.1116 73.3118C17.9114 73.3577 17.7066 73.3651 17.5027 73.3895C16.832 73.4222 16.1585 73.3605 15.4924 73.2651C15.224 73.2117 14.9527 73.1715 14.688 73.0976C14.4242 73.02 14.1585 72.9554 13.9022 72.8572C12.8246 72.4728 11.7685 72.035 10.704 71.5897C10.5132 71.5074 10.3186 71.4307 10.1297 71.3428C9.94633 71.2399 9.75364 71.1416 9.5703 71.0397L9.88927 70.4719C9.96972 70.3278 10.0558 70.1866 10.1465 70.0491L11.037 68.7096C11.197 68.4682 11.3336 68.2128 11.4458 67.9463L11.8733 66.9304L11.9584 66.7807L11.9958 66.8771C12.4645 66.7021 12.979 66.6591 13.4972 66.7096C13.6992 66.7255 13.9022 66.7592 14.1033 66.8041C14.7563 66.9482 15.4148 67.1465 16.1295 67.2316C16.5139 67.2793 16.9274 67.2494 17.3016 67.1409C17.7805 67.0061 18.2192 66.8041 18.6373 66.588C19.3193 66.3008 19.9675 65.9884 20.6457 65.7461C21.1415 65.5591 21.6522 65.4113 22.1639 65.2728C22.365 65.2232 22.568 65.183 22.771 65.1475C23.436 65.0474 24.103 64.9866 24.77 64.966C25.1292 64.9529 25.4874 64.9305 25.8448 64.8865C26.1011 64.8594 26.3583 64.8369 26.6165 64.8191L26.566 64.8584L26.6202 64.8697C27.0253 64.9276 27.4022 64.9894 27.8148 65.0352L28.0654 65.0633C28.1337 65.0708 28.1702 65.0764 28.2245 65.0857C28.2647 65.0913 28.3049 65.1007 28.3451 65.1082C28.405 65.1194 28.4639 65.1288 28.5238 65.1419C28.6332 65.1662 28.7446 65.183 28.8559 65.1942C28.955 65.2045 29.0551 65.2111 29.1552 65.2111C29.188 65.2101 29.1655 65.2092 29.1739 65.2064C29.1758 65.2036 29.1795 65.1999 29.1861 65.1952C29.1992 65.1849 29.2254 65.1709 29.2759 65.1503C29.2796 65.1493 29.2862 65.1475 29.2908 65.1456C29.3227 65.1334 29.3582 65.1213 29.4012 65.1091L29.4134 65.1054ZM8.50111 70.2249C8.13068 69.8423 7.83602 69.3859 7.61246 68.8985C7.14849 67.877 6.84074 66.7854 6.56666 65.6732C6.52176 65.4721 6.47312 65.27 6.43289 65.067C6.34216 64.3945 6.2879 63.7163 6.26265 63.0362C6.24113 62.4834 6.2589 61.9296 6.30755 61.3787L6.46095 59.6575L6.53859 58.7969L6.57788 58.3675L6.59659 58.1636L6.58911 58.1225C6.5835 58.0757 6.58162 58.0046 6.58537 57.9082C6.61998 57.9531 6.65272 57.999 6.68265 58.0467C6.71726 58.1037 6.68733 58.0776 6.77526 58.3142C6.86786 58.5817 6.97637 58.8259 7.05962 59.2945C7.22426 59.3002 7.29816 59.273 7.34119 59.2609C7.31125 59.7239 7.33557 60.1963 7.44408 60.6584C7.56195 61.1981 7.79206 61.6967 8.05398 62.1513C8.14845 62.3159 8.24667 62.4768 8.34489 62.6359C8.6302 63.1775 8.91082 63.7013 9.14468 64.2504C9.3355 64.6966 9.48704 65.1587 9.59836 65.6292C9.82847 66.6114 10.0202 67.5936 10.1746 68.5908C10.1886 68.674 10.198 68.7573 10.2092 68.8405C9.83034 69.4729 9.48237 70.1239 9.16713 70.7899C9.06143 70.717 8.95572 70.6449 8.86031 70.557C8.73216 70.4569 8.61523 70.3428 8.50111 70.2249ZM9.87711 54.0019L9.91172 54.1142L9.9454 54.2442C9.96598 54.3321 9.98282 54.421 9.99498 54.5117C10.0081 54.6053 10.0258 54.6979 10.0474 54.7896L10.0838 54.9261L10.1035 54.9935L10.1353 55.0879C10.1811 55.2245 10.2298 55.3564 10.2784 55.4846C10.3196 55.7325 10.386 55.9719 10.4692 56.1992C10.6086 56.5771 10.7845 56.9289 10.9528 57.274C11.2269 57.8343 11.4786 58.405 11.7059 58.9849C12.1801 60.1954 12.6852 61.3918 13.2212 62.576L13.4822 63.1616C13.1576 63.6611 12.8611 64.1784 12.5983 64.7097L12.3485 65.2204L11.4374 66.8312C11.1923 67.269 10.9332 67.6974 10.6601 68.1174C10.6414 68.1446 10.6255 68.1726 10.6077 68.2007C10.5955 68.0856 10.5852 67.9706 10.5703 67.8555C10.5506 67.6927 10.531 67.5291 10.5169 67.3644C10.4692 66.8312 10.3925 66.2971 10.284 65.7677C10.2232 65.4833 10.1325 65.2036 10.0043 64.9417C9.84624 64.6077 9.67132 64.2831 9.48704 63.9651C9.2588 63.4394 8.98659 62.9343 8.72467 62.4376C8.53385 62.0709 8.35051 61.7042 8.20271 61.3272C8.14378 61.1803 8.09981 61.0288 8.06427 60.8763C7.9595 60.3796 7.9305 59.8764 7.96979 59.375C7.98663 59.1046 7.99972 58.8334 7.99317 58.5584C7.98663 58.2244 8.00346 57.8858 8.03059 57.5453C8.15407 57.144 8.31309 56.7521 8.50111 56.377C8.71345 55.9532 8.92953 55.5332 9.15029 55.1151L9.48611 54.4893L9.65635 54.1778L9.74241 54.0225C9.75364 53.9982 9.74709 54.0001 9.7527 53.9832C9.76112 53.9449 9.78357 53.8906 9.81631 53.8186L9.87711 54.0019ZM11.0342 55.537C11.1016 55.4069 11.1689 55.2797 11.2382 55.1581L11.3719 54.9186C11.5366 54.6352 11.7077 54.3546 11.8873 54.0805C12.1782 53.6334 12.5075 53.2115 12.8648 52.8177C13.6085 51.9983 14.3812 51.1947 15.1688 50.4352C15.1884 50.3996 15.2249 50.3528 15.282 50.2892L15.2829 50.2995C15.2848 50.3388 15.2885 50.3781 15.296 50.4174C15.2969 50.4258 15.2979 50.4352 15.2979 50.4445L15.296 50.4576C15.296 50.4614 15.2988 50.4866 15.2998 50.4997C15.3072 50.5643 15.311 50.6307 15.3138 50.6971C15.3157 50.7672 15.3241 50.8365 15.34 50.9038C15.3475 50.9375 15.3559 50.9712 15.3671 51.0039L15.3942 51.0769C15.4055 51.1059 15.4176 51.1349 15.4307 51.162C15.4924 51.3051 15.5692 51.4239 15.6468 51.5268C15.5561 52.0909 15.5879 52.6643 15.6926 53.2096C15.7946 53.7419 15.9443 54.2573 16.1108 54.7652C16.4615 55.8279 16.9994 56.7811 17.4727 57.7324C17.5317 57.8493 17.585 57.9681 17.6392 58.0869C17.3558 58.3844 17.0799 58.6893 16.8189 59.0092L16.4625 59.4526C16.0434 59.91 15.6346 60.3778 15.2436 60.8614L14.2886 62.0437C14.1099 62.2636 13.9396 62.4909 13.7759 62.7229C13.6328 62.3431 13.4888 61.9642 13.3382 61.5882C13.2605 61.3964 13.1894 61.2019 13.1221 61.0064C12.9041 60.3712 12.6778 59.7389 12.4402 59.1103C12.313 58.7698 12.1558 58.4414 11.9743 58.1281C11.7423 57.7305 11.5066 57.3348 11.269 56.9429C11.1044 56.6071 10.9444 56.2685 10.8294 55.9252L11.0342 55.537ZM16.8469 50.6428C17.0901 50.3444 17.3399 50.0498 17.5981 49.7645C18.0162 49.2977 18.4718 48.8646 18.9516 48.4652C19.453 48.048 19.96 47.6411 20.4745 47.2426C20.7327 47.0443 20.9927 46.8488 21.2528 46.6533L21.6475 46.3651L21.6962 46.3287L21.7205 46.31L21.7298 46.3025L21.7626 46.2753L21.8365 46.2117L21.8945 46.1631L21.9356 46.1266L22.0451 46.0359L21.9338 46.3455C21.915 46.3988 21.8814 46.4699 21.8365 46.555C21.6157 46.8244 21.3921 47.1154 21.2387 47.4633C21.0676 47.8469 21.0114 48.2669 21.0096 48.6625C21.0105 48.7439 21.0114 48.8206 21.0152 48.9067C21.0245 49.0021 21.0358 49.0984 21.0619 49.1826C21.1068 49.3585 21.177 49.5119 21.2481 49.6597C21.3921 49.9515 21.5549 50.2163 21.6934 50.4801C21.8337 50.7504 21.9702 51.0292 21.9927 51.2518C22.002 51.3088 21.9946 51.3547 21.9927 51.3996L21.9534 51.6203C21.9244 51.7691 21.8917 51.9187 21.8552 52.0684C21.7102 52.6652 21.5147 53.2657 21.3407 53.8831L21.1517 54.5482L21.235 54.5772C20.8627 54.9663 20.4885 55.3527 20.1116 55.7362C19.7598 56.0926 19.3969 56.4359 19.019 56.7642C18.6617 57.0757 18.3137 57.4012 17.9769 57.738C17.8619 57.4461 17.7403 57.158 17.6093 56.8765C17.5373 56.7193 17.469 56.5612 17.4054 56.4003C17.2015 55.8803 16.9929 55.3648 16.8142 54.8485C16.7178 54.5697 16.6065 54.3013 16.484 54.0375C16.3287 53.7035 16.194 53.3584 16.0911 53.0029C16.0135 52.5492 15.9985 52.0871 16.0649 51.64L16.8469 50.6428ZM29.5761 44.0921C29.7024 44.0724 29.8278 44.0547 29.9541 44.0359C30.0766 44.0182 30.1991 43.9976 30.3226 43.9817L29.9382 44.4784L29.5584 44.9695L29.3984 45.1762C29.3554 45.2314 29.3105 45.2829 29.2675 45.3371C28.9971 45.6729 28.7184 46.0022 28.4275 46.3193C27.7221 47.0882 27.058 47.8927 26.4444 48.7374L26.1104 49.1929C25.711 49.6597 25.3097 50.1255 24.9028 50.5867C24.5735 50.9627 24.2265 51.3238 23.8701 51.6737C23.1507 52.3696 22.4744 53.1058 21.8374 53.8775L22.0647 53.2218L22.2658 52.6437C22.379 52.3303 22.48 52.0085 22.5577 51.6774L22.5857 51.553L22.5998 51.4884L22.6082 51.4061C22.625 51.2929 22.611 51.19 22.6007 51.0853C22.567 50.8851 22.5034 50.7064 22.4333 50.5399C22.2789 50.1854 22.0685 49.8898 21.8711 49.6157C21.7448 49.4417 21.6269 49.2687 21.5493 49.0956C21.5353 49.0535 21.5138 49.0096 21.5016 48.9675C21.4941 48.9235 21.4773 48.8917 21.4726 48.8347C21.4586 48.729 21.4492 48.6223 21.4417 48.5157C21.4576 48.1827 21.5175 47.8609 21.6616 47.5709C21.7757 47.3333 21.9375 47.1135 22.1134 46.8946L22.5165 46.6308C22.6737 46.526 22.829 46.425 22.9805 46.3343L23.1442 46.2332C23.1882 46.2061 23.2321 46.179 23.278 46.1537C23.6381 45.9451 24.0038 45.7478 24.3771 45.5654C24.9842 45.2651 25.6184 45.0247 26.2657 44.8367C27.2254 44.5588 28.1964 44.3325 29.1786 44.1585C29.3105 44.1351 29.4433 44.1136 29.5761 44.0921ZM29.3105 47.758C29.2993 47.8319 29.2908 47.9058 29.2815 47.9797C29.2609 48.1471 29.2431 48.3146 29.2328 48.482L29.2207 48.8459L29.2226 49.3183L29.2525 50.1648L29.4386 50.0488L29.911 49.7523L30.0663 49.655L30.1505 49.6036L30.2076 49.5699L30.3095 49.5156C30.3797 49.482 30.4508 49.4511 30.5247 49.424C30.679 49.3669 30.824 49.2949 30.9587 49.2079C30.9653 49.2013 30.9512 49.1873 31.0008 49.1115C31.0176 49.0844 31.041 49.0535 31.07 49.0199L31.0644 49.1752L31.0317 49.6092C30.9961 49.9562 30.9512 50.3023 30.8914 50.6456C30.7959 51.205 30.6435 51.7541 30.4461 52.2826C30.2356 52.8439 30.0074 53.3958 29.7604 53.9393C29.6136 54.2629 29.4574 54.5819 29.2955 54.899C29.1936 55.0973 29.0925 55.2956 28.985 55.4921L28.9298 55.5903L28.9223 55.5856C28.9129 55.6024 28.9036 55.6183 28.8952 55.6352C28.6819 56.0262 28.4686 56.4153 28.2422 56.7942C28.1496 56.9485 28.0514 57.0982 27.9438 57.2404C27.5959 57.7034 27.217 58.1384 26.7914 58.4948C26.5641 58.6846 26.3358 58.8745 26.1095 59.0635C25.8195 59.2992 25.4949 59.4947 25.1366 59.6116C24.5614 59.7398 23.9543 59.6201 23.3444 59.4807C22.8935 59.375 22.422 59.2833 21.9534 59.2272C21.7701 59.2094 21.5867 59.1832 21.4024 59.1598C20.8066 59.0813 20.1995 59.0551 19.5924 59.0803C19.265 59.0962 18.9376 59.1505 18.6252 59.2468C18.2276 59.3684 17.8404 59.5153 17.4634 59.6781C17.1435 59.781 16.8292 59.8998 16.5195 60.0317C16.6065 59.9353 16.6907 59.838 16.7787 59.7426C17.0621 59.433 17.3521 59.1271 17.6449 58.825C17.759 58.7071 17.8796 58.5939 18.0031 58.4854L19.2201 57.4368C19.439 57.2488 19.641 57.0402 19.8216 56.8138L20.5063 55.9467L21.7055 54.7082L22.5783 53.7868C22.6914 53.6661 22.8084 53.5501 22.929 53.4369C23.3238 53.0721 23.7157 52.7045 24.1049 52.3341C24.3163 52.1358 24.5052 51.9141 24.6736 51.6774L25.3088 50.7738C25.6885 50.3435 26.0636 49.9076 26.4369 49.4707L27.2563 48.5016C27.362 48.3744 27.4724 48.2519 27.5884 48.1331L28.6997 46.9657C28.898 46.7543 29.0776 46.5251 29.231 46.2791L29.2459 46.2538L29.5415 45.7796L29.8137 45.3409L29.9138 45.2118L30.3423 44.6571C30.2833 44.789 30.2263 44.9209 30.1711 45.0546C30.0775 45.2791 29.9887 45.5055 29.9017 45.7328C29.824 45.9377 29.7473 46.1425 29.6725 46.3492C29.6145 46.5083 29.5649 46.6701 29.5182 46.8329C29.4302 47.1369 29.3601 47.4456 29.3105 47.758ZM35.2214 18.0658H35.3945V18.4943L35.3178 18.5354C35.1746 18.6103 35.0306 18.6131 34.8884 18.5438C34.8192 18.5111 34.7509 18.4943 34.6826 18.4943H34.4291V18.0658H34.6648L34.8145 17.9424C34.8547 17.9096 34.894 17.904 34.9333 17.9255L35.1531 18.0471C35.1756 18.0593 35.198 18.0658 35.2214 18.0658ZM34.749 16.8395C34.8089 16.8507 34.8697 16.8563 34.9296 16.8563L35.3926 16.8517L35.3973 17.2801L35.1915 17.3231C34.8108 17.4017 34.4282 17.4092 34.0465 17.3437C33.8632 17.3119 33.6798 17.2979 33.4974 17.2997L32.8221 17.3063L32.8174 16.8769L33.4469 16.8704L33.8454 16.7432C33.9502 16.7104 34.0559 16.7039 34.1616 16.7244L34.749 16.8395ZM31.6416 15.9387L31.6369 15.5103C31.8979 15.5065 32.1588 15.5 32.4198 15.4897L32.9119 15.3428C33.04 15.3035 33.17 15.2895 33.3019 15.3017C33.547 15.3251 33.7921 15.3456 34.0381 15.3634C34.1139 15.3681 34.1896 15.3672 34.2635 15.3597L34.8379 15.2951L34.8603 15.4822L34.8893 15.7207L34.6349 15.7918C34.1644 15.9209 33.678 15.9668 33.1916 15.9293C32.9586 15.9106 32.7267 15.9069 32.4956 15.9162C32.2112 15.9275 31.9269 15.935 31.6416 15.9387ZM73.6626 14.3691C73.5868 14.2811 73.6298 14.1605 73.7336 14.0707C73.8384 13.9809 74.0236 14.0248 74.1003 14.1137C74.1761 14.2016 74.1144 14.3008 74.0096 14.3906C73.9058 14.4804 73.7393 14.4579 73.6626 14.3691ZM74.2837 15.0893C74.1536 14.9378 74.1677 14.7835 74.2715 14.6937C74.3753 14.6038 74.6335 14.732 74.7635 14.8826C74.8945 15.0341 74.8477 15.1511 74.7439 15.2409C74.6391 15.3307 74.4137 15.2409 74.2837 15.0893ZM73.0499 13.6591C72.9563 13.5506 72.99 13.4177 73.0938 13.3279C73.1976 13.2381 73.4081 13.3102 73.5017 13.4196C73.5961 13.5291 73.5391 13.6338 73.4352 13.7236C73.3305 13.8134 73.1443 13.7685 73.0499 13.6591ZM3.53028 54.1535V54.8298C3.60511 56.0776 3.67621 57.3292 3.60698 58.5771C3.57331 59.1757 3.55741 59.7744 3.55741 60.3731L3.53028 62.5844V63.2598C3.60511 64.5076 3.67621 65.7592 3.60698 67.008C3.57331 67.6058 3.55741 68.2044 3.55741 68.804L3.53028 71.0144H3.10092L3.12805 68.9556L3.00457 67.645C2.97183 67.3017 2.96622 66.9547 2.98867 66.6095L3.10934 64.691C3.1215 64.4945 3.12805 64.2972 3.12805 64.0998L3.10092 62.5844L3.12805 60.5256L3.00457 59.215C2.97183 58.8717 2.96622 58.5247 2.98867 58.1795L3.10934 56.261C3.1215 56.0645 3.12805 55.8672 3.12805 55.6698L3.10092 54.1535L3.12805 52.0955L3.00457 50.785C2.97183 50.4408 2.96622 50.0947 2.98867 49.7495L3.10934 47.831C3.1215 47.6345 3.12805 47.4371 3.12805 47.2398L3.10092 45.7234H3.09063C3.09063 45.5139 3.14114 45.2483 3.27865 45.2483C3.28801 45.2483 3.29642 45.252 3.30484 45.2548C3.42925 45.2866 3.51999 45.5279 3.51999 45.7234H3.53028V46.3998C3.60511 47.6467 3.67621 48.8992 3.60698 50.1471C3.57331 50.7448 3.55741 51.3444 3.55741 51.9431L3.53028 54.1535ZM3.05602 44.4148C3.05602 44.2623 3.16734 44.2184 3.30484 44.2184C3.44235 44.2184 3.5546 44.3821 3.5546 44.5336C3.5546 44.6851 3.44235 44.7674 3.30484 44.7674C3.16734 44.7674 3.05602 44.5663 3.05602 44.4148ZM3.05602 43.4522C3.05602 43.3297 3.16734 43.2932 3.30484 43.2932C3.44235 43.2932 3.5546 43.4261 3.5546 43.5486C3.5546 43.6711 3.44235 43.7375 3.30484 43.7375C3.16734 43.7375 3.05602 43.5748 3.05602 43.4522ZM3.05602 42.3849C3.05602 42.1745 3.16734 42.1137 3.30484 42.1137C3.44235 42.1137 3.5546 42.34 3.5546 42.5496C3.5546 42.7591 3.44235 42.8723 3.30484 42.8723C3.16734 42.8723 3.05602 42.5945 3.05602 42.3849ZM36.6208 70.7273C36.6077 70.9602 36.4927 71.0219 36.3551 71.0144C36.2176 71.006 36.1204 70.7488 36.1335 70.5149C36.1465 70.2829 36.2644 70.1632 36.401 70.1697C36.4019 70.1697 36.4019 70.1697 36.4019 70.1697C36.5394 70.1782 36.6339 70.4934 36.6208 70.7273ZM36.3617 66.9874L36.7901 67.0099C36.777 67.2438 36.7115 67.5365 36.574 67.5291C36.5647 67.5281 36.5563 67.5234 36.5469 67.5206C36.4253 67.4776 36.3495 67.2045 36.3617 66.9874ZM36.7462 68.4692C36.7377 68.6375 36.6236 68.6806 36.4861 68.6731C36.4852 68.6731 36.4842 68.6731 36.4833 68.6731C36.3477 68.6628 36.2466 68.4766 36.256 68.3092C36.2644 68.1418 36.3804 68.0566 36.517 68.0632C36.5179 68.0632 36.5179 68.0632 36.5188 68.0632C36.6564 68.0697 36.7555 68.2998 36.7462 68.4692ZM36.661 69.3971C36.6797 69.4448 36.69 69.4944 36.6872 69.5393C36.6797 69.6758 36.5666 69.7095 36.429 69.702C36.4281 69.702 36.4281 69.7011 36.4272 69.7011C36.2906 69.6917 36.1886 69.5402 36.1961 69.4046C36.1971 69.3859 36.2045 69.3718 36.2092 69.3569C36.2392 69.2558 36.3364 69.2025 36.4543 69.2081C36.4552 69.2081 36.4552 69.2081 36.4562 69.2081C36.5488 69.2137 36.6236 69.2998 36.661 69.3971Z" fill="#895D39"/>
</g>
</svg>
