<svg width="57" height="57" viewBox="0 0 57 57" fill="none" xmlns="http://www.w3.org/2000/svg">
<circle cx="28.5" cy="28.5" r="28.5" fill="#1F4172"/>
<path d="M16.1375 14.9629C15.8257 14.9629 15.5267 15.0868 15.3062 15.3072C15.0858 15.5277 14.9619 15.8267 14.9619 16.1385C14.9619 16.4503 15.0858 16.7493 15.3062 16.9698C15.5267 17.1903 15.8257 17.3141 16.1375 17.3141H16.7159C16.9712 17.3146 17.2194 17.3981 17.423 17.5521C17.6266 17.7061 17.7746 17.9221 17.8445 18.1676L21.5736 31.2171C21.7845 31.9535 22.2295 32.6012 22.8412 33.0624C23.4529 33.5235 24.1981 33.7729 24.9641 33.7729H35.707C36.412 33.773 37.1009 33.5618 37.6847 33.1666C38.2685 32.7714 38.7205 32.2103 38.9823 31.5557L42.448 22.889C42.5905 22.5323 42.6435 22.1462 42.6023 21.7644C42.5611 21.3826 42.427 21.0167 42.2117 20.6987C41.9964 20.3806 41.7066 20.1202 41.3674 19.9401C41.0282 19.7599 40.6501 19.6656 40.2661 19.6654H20.7178L20.1041 17.5211C19.8937 16.7846 19.4493 16.1366 18.838 15.6751C18.2268 15.2136 17.4819 14.9636 16.7159 14.9629H16.1375ZM25.5425 43.1779C26.0057 43.1779 26.4643 43.0867 26.8922 42.9094C27.3201 42.7322 27.7089 42.4724 28.0364 42.1449C28.3639 41.8174 28.6237 41.4286 28.8009 41.0007C28.9782 40.5728 29.0694 40.1142 29.0694 39.651C29.0694 39.1879 28.9782 38.7292 28.8009 38.3013C28.6237 37.8734 28.3639 37.4846 28.0364 37.1571C27.7089 36.8296 27.3201 36.5698 26.8922 36.3926C26.4643 36.2154 26.0057 36.1241 25.5425 36.1241C24.6072 36.1241 23.7101 36.4957 23.0487 37.1571C22.3872 37.8186 22.0157 38.7156 22.0157 39.651C22.0157 40.5864 22.3872 41.4835 23.0487 42.1449C23.7101 42.8063 24.6072 43.1779 25.5425 43.1779ZM34.9475 43.1779C35.4107 43.1779 35.8693 43.0867 36.2972 42.9094C36.7251 42.7322 37.1139 42.4724 37.4414 42.1449C37.7689 41.8174 38.0287 41.4286 38.2059 41.0007C38.3832 40.5728 38.4744 40.1142 38.4744 39.651C38.4744 39.1879 38.3832 38.7292 38.2059 38.3013C38.0287 37.8734 37.7689 37.4846 37.4414 37.1571C37.1139 36.8296 36.7251 36.5698 36.2972 36.3926C35.8693 36.2154 35.4107 36.1241 34.9475 36.1241C34.0122 36.1241 33.1151 36.4957 32.4537 37.1571C31.7922 37.8186 31.4207 38.7156 31.4207 39.651C31.4207 40.5864 31.7922 41.4835 32.4537 42.1449C33.1151 42.8063 34.0122 43.1779 34.9475 43.1779Z" fill="#F1B4BB"/>
</svg>
