<svg width="144" height="39" viewBox="0 0 144 39" fill="none" xmlns="http://www.w3.org/2000/svg">
<mask id="mask0_269_192" style="mask-type:luminance" maskUnits="userSpaceOnUse" x="0" y="0" width="144" height="39">
<path d="M0 0H144V38.4375H0V0Z" fill="white"/>
</mask>
<g mask="url(#mask0_269_192)">
<path d="M124.744 0.0175781H19.2559C8.62109 0.0175781 0 8.62012 0 19.2324C0 29.8447 8.62109 38.4473 19.2559 38.4473H124.744C135.379 38.4473 144 29.8447 144 19.2324C144 8.62012 135.379 0.0175781 124.744 0.0175781Z" fill="#1F4172"/>
</g>
<path d="M124.744 2.07812C116.557 2.07812 109.688 7.82031 107.97 15.4795C107.697 16.6885 107.555 17.9424 107.555 19.2314C107.555 20.5205 107.697 21.7744 107.97 22.9834C109.688 30.6426 116.557 36.3848 124.744 36.3848C134.224 36.3848 141.935 28.6904 141.935 19.2314C141.935 9.77344 134.224 2.07812 124.744 2.07812Z" fill="white"/>
<path d="M132.627 19.2305L119.911 10.5352V15.4785H107.65C107.329 16.6875 107.159 17.9414 107.159 19.2305C107.159 20.5195 107.329 21.7734 107.65 22.9824H119.911V27.9268L132.627 19.2305Z" fill="#1F4172"/>
<path d="M20 22.084C20.1064 23.2187 20.5986 24.1836 21.8369 24.1836C23.0273 24.1836 23.5293 23.4746 23.5293 22.3564C23.5293 21.2168 23.0059 20.5771 21.3613 19.79C19.252 18.7891 18.3926 17.8906 18.3926 16.0264C18.3926 14.0957 19.6348 12.707 21.8516 12.707C24.5674 12.707 25.2578 14.5732 25.2949 16.167H23.3604C23.291 15.4795 23.1045 14.2793 21.8096 14.2793C20.7998 14.2793 20.3594 14.9482 20.3594 15.8594C20.3594 16.874 20.8115 17.3486 22.333 18.0615C24.5898 19.1133 25.54 20.1445 25.54 22.1826C25.54 24.1738 24.3418 25.7559 21.7793 25.7559C18.9912 25.7559 18.1201 23.9619 18.0342 22.084H20Z" fill="white"/>
<path d="M27.2012 12.8945H29.1748V18.0156H32.5938V12.8945H34.5664V25.5527H32.5938V19.7324H29.1748V25.5527H27.2012V12.8945Z" fill="white"/>
<path d="M38.4404 19.0898C38.4404 22.2998 38.9902 24.0967 40.4033 24.0967C41.8799 24.0967 42.374 22.4043 42.374 19.1016C42.374 15.9053 41.8447 14.3779 40.3975 14.3779C38.9746 14.3779 38.4404 16.0547 38.4404 19.0898ZM44.3975 19.1221C44.3975 23.6445 43.2158 25.7617 40.3525 25.7617C37.6611 25.7617 36.416 23.6914 36.416 19.1133C36.416 14.6328 37.8701 12.7012 40.4424 12.7012C43.1592 12.7012 44.3975 14.7646 44.3975 19.1221Z" fill="white"/>
<path d="M48.2334 18.6953H49.4854C50.834 18.6953 51.4688 18.0098 51.4688 16.5518C51.4688 15.2402 50.7871 14.5068 49.6191 14.5068H48.2334V18.6953ZM46.2598 12.8945H49.8896C51.9492 12.8945 53.4531 14.1475 53.4531 16.5781C53.4531 18.9561 52.0928 20.2949 49.7051 20.2949H48.2334V25.5527H46.2598V12.8945Z" fill="white"/>
<path d="M58.5771 25.5527V12.8945H60.8613C63.7861 20.4932 64.2871 21.7783 64.4424 22.375H64.46C64.3594 20.793 64.3486 18.916 64.3486 16.8467V12.8945H66.1299V25.5527H63.9414C60.9141 17.498 60.4443 16.2158 60.2861 15.6631H60.2686C60.3623 17.2295 60.3672 19.165 60.3672 21.4375V25.5527H58.5771Z" fill="white"/>
<path d="M69.9854 19.0898C69.9854 22.2998 70.5342 24.0967 71.9482 24.0967C73.4238 24.0967 73.918 22.4043 73.918 19.1016C73.918 15.9053 73.3896 14.3779 71.9424 14.3779C70.5195 14.3779 69.9854 16.0547 69.9854 19.0898ZM75.9424 19.1221C75.9424 23.6445 74.7607 25.7617 71.8975 25.7617C69.207 25.7617 67.9609 23.6914 67.9609 19.1133C67.9609 14.6328 69.415 12.7012 71.9873 12.7012C74.7041 12.7012 75.9424 14.7646 75.9424 19.1221Z" fill="white"/>
<path d="M79.2764 25.5527L76.8301 12.8945H78.9326C79.5254 16.4004 80.2031 20.6621 80.3799 22.8125H80.3984C80.7266 20.6016 81.7725 15.7354 82.3096 12.8945H84.0947C84.6064 15.5215 85.6602 20.5615 85.9424 22.7158H85.9805C86.2549 20.209 87.1631 15.4668 87.5557 12.8945H89.5205L86.8965 25.5527H84.9111C84.3984 22.8291 83.4443 18.3438 83.1338 16.0908H83.1025C82.7676 18.4229 81.7783 22.9766 81.25 25.5527H79.2764Z" fill="white"/>
</svg>
