<svg width="10" height="10" viewBox="0 0 10 10" fill="none" xmlns="http://www.w3.org/2000/svg">
<path d="M4.7604 7.46429L7.7188 4.50589C7.22106 4.29808 6.76902 3.99446 6.3884 3.61229C6.00605 3.23157 5.70229 2.7794 5.4944 2.28149L2.536 5.23989C2.3052 5.47069 2.1896 5.58629 2.0904 5.71349C1.97324 5.8636 1.87278 6.02602 1.7908 6.19789C1.7216 6.34349 1.67 6.49869 1.5668 6.80829L1.022 8.44149C0.996924 8.51627 0.993204 8.59656 1.01126 8.67333C1.02931 8.75011 1.06842 8.82033 1.12419 8.8761C1.17996 8.93187 1.25018 8.97098 1.32695 8.98903C1.40373 9.00708 1.48402 9.00336 1.5588 8.97829L3.192 8.43349C3.502 8.33029 3.6568 8.27869 3.8024 8.20949C3.9744 8.12749 4.1368 8.02709 4.2868 7.90989C4.414 7.81069 4.5296 7.69509 4.7604 7.46429ZM8.5396 3.68509C8.83457 3.39011 9.00029 2.99004 9.00029 2.57289C9.00029 2.15573 8.83457 1.75566 8.5396 1.46069C8.24462 1.16571 7.84455 1 7.4274 1C7.01024 1 6.61017 1.16571 6.3152 1.46069L5.9604 1.81549L5.9756 1.85989C6.15044 2.36018 6.43656 2.81425 6.8124 3.18789C7.19721 3.57497 7.66718 3.86673 8.1848 4.03989L8.5396 3.68509Z" fill="white"/>
</svg>
