<svg width="40" height="16" viewBox="0 0 40 16" fill="none" xmlns="http://www.w3.org/2000/svg">
<rect width="40" height="16" rx="8" fill="#DC8699"/>
<path d="M19.7604 10.4643L22.7188 7.50589C22.2211 7.29808 21.769 6.99446 21.3884 6.61229C21.0061 6.23157 20.7023 5.7794 20.4944 5.28149L17.536 8.23989C17.3052 8.47069 17.1896 8.58629 17.0904 8.71349C16.9732 8.8636 16.8728 9.02602 16.7908 9.19789C16.7216 9.34349 16.67 9.49869 16.5668 9.80829L16.022 11.4415C15.9969 11.5163 15.9932 11.5966 16.0113 11.6733C16.0293 11.7501 16.0684 11.8203 16.1242 11.8761C16.18 11.9319 16.2502 11.971 16.327 11.989C16.4037 12.0071 16.484 12.0034 16.5588 11.9783L18.192 11.4335C18.502 11.3303 18.6568 11.2787 18.8024 11.2095C18.9744 11.1275 19.1368 11.0271 19.2868 10.9099C19.414 10.8107 19.5296 10.6951 19.7604 10.4643ZM23.5396 6.68509C23.8346 6.39011 24.0003 5.99004 24.0003 5.57289C24.0003 5.15573 23.8346 4.75566 23.5396 4.46069C23.2446 4.16571 22.8446 4 22.4274 4C22.0102 4 21.6102 4.16571 21.3152 4.46069L20.9604 4.81549L20.9756 4.85989C21.1504 5.36018 21.4366 5.81425 21.8124 6.18789C22.1972 6.57497 22.6672 6.86673 23.1848 7.03989L23.5396 6.68509Z" fill="white"/>
</svg>
